<?xml version="1.0"?>
<svg width="1280" height="730" xmlns="http://www.w3.org/2000/svg" xmlns:svg="http://www.w3.org/2000/svg" preserveAspectRatio="xMidYMid meet" version="1.0">
 <metadata>Created by potrace 1.15, written by Peter Selinger 2001-2017</metadata>

 <g class="layer">
  <title>Layer 1</title>
  <g fill="#000000" id="svg_1" transform="matrix(0.1, 0, 0, -0.1, 0, 0)">
   <path d="m11230,-172c-1,-183 5,-177 -70,-72l-35,49l-3,-34c-3,-25 9,-59 42,-125c39,-79 46,-102 52,-177c4,-59 3,-88 -4,-93c-7,-4 -14,4 -18,21c-4,15 -10,33 -14,38c-4,6 -10,38 -14,73c-6,69 -21,105 -39,99c-7,-2 -13,-18 -15,-35c-4,-40 -18,-40 -58,-1c-18,17 -37,28 -43,25c-20,-13 -11,-52 29,-131l40,-79l-25,-24c-30,-27 -31,-33 -6,-63c18,-23 20,-23 38,-6c29,26 33,22 33,-33c0,-27 -3,-50 -6,-50c-3,0 -20,11 -38,25c-18,14 -36,25 -39,25c-18,0 -4,-61 23,-103c34,-54 36,-58 15,-51c-9,4 -19,-3 -26,-20c-7,-14 -16,-26 -20,-26c-4,0 -42,29 -84,65c-42,36 -81,65 -86,65c-32,0 -13,-88 27,-119c31,-24 30,-27 -5,-34c-16,-3 -31,-14 -35,-23c-7,-19 10,-44 30,-44c20,0 50,-33 46,-51c-1,-8 6,-24 18,-34c27,-24 25,-32 -7,-40c-38,-9 -73,-33 -73,-49c0,-8 8,-24 18,-36c16,-20 21,-21 41,-10c28,14 71,5 71,-15c0,-20 39,-19 46,0c4,8 17,15 31,15l24,0l-19,-27c-32,-48 -33,-52 -13,-62c14,-8 25,-6 44,9l25,20l-5,-40c-5,-35 -3,-40 14,-40c10,0 24,5 31,12c7,7 12,8 12,3c1,-6 9,6 19,25l19,34l11,-39c22,-80 18,-83 -99,-92c-69,-5 -78,-3 -110,21c-89,65 -110,77 -119,71c-20,-11 -11,-37 22,-67c30,-29 30,-30 7,-23c-48,15 -82,37 -141,91c-33,31 -66,53 -72,51c-7,-2 -11,-20 -11,-41c1,-39 5,-37 -86,-53c-100,-18 -38,-98 76,-98l61,0l-28,-26c-17,-16 -29,-37 -29,-52c0,-51 42,-39 102,27c20,23 40,38 44,33c4,-4 -7,-21 -24,-37c-36,-32 -39,-45 -17,-66c8,-9 15,-26 15,-39c0,-35 14,-38 40,-10c13,14 29,25 37,25c7,0 31,16 53,36c54,49 51,28 -5,-34c-25,-27 -45,-57 -45,-65c0,-24 27,-27 54,-6l26,20l0,-31c0,-28 2,-31 16,-19c8,7 22,26 30,41c12,23 18,27 28,19c10,-8 17,-7 26,4c7,8 26,15 42,15c38,0 96,55 105,101c5,27 7,30 13,14c10,-29 -4,-70 -40,-115c-30,-38 -181,-170 -194,-170c-4,0 -36,20 -73,45c-36,25 -69,45 -74,45c-14,0 -11,-28 6,-60c14,-27 5,-44 -10,-20c-4,6 -11,8 -16,5c-5,-3 -29,6 -54,20l-45,27l0,-32l0,-33l-52,6c-60,8 -78,-3 -78,-45c0,-25 3,-28 20,-23c20,6 28,-9 10,-20c-5,-3 -10,-15 -10,-26c0,-15 7,-19 31,-19c28,0 31,-2 25,-25c-6,-23 -3,-25 25,-25c27,0 30,-3 27,-25c-3,-25 4,-29 36,-19c24,8 46,-19 46,-57c0,-37 -15,-44 -40,-19c-21,21 -64,27 -75,10c-3,-5 -15,-10 -26,-10c-24,0 -24,-15 1,-47c21,-27 26,-78 11,-102c-7,-10 -19,-3 -53,33c-57,59 -71,60 -63,2l7,-45l-59,14c-57,13 -85,13 -130,0c-20,-6 -23,-4 -23,19c0,30 -11,33 -31,9c-24,-28 -91,-73 -111,-73c-10,0 -34,7 -54,15c-34,14 -35,15 -18,40c25,39 12,55 -44,55c-59,0 -85,23 -107,96c-17,56 -20,128 -5,119c6,-3 10,-26 10,-50c0,-46 14,-88 38,-117c19,-22 42,-7 42,28c0,12 5,26 10,29c6,3 10,0 10,-9c0,-23 50,-76 72,-76c18,0 19,4 14,35c-5,26 -3,40 9,52c14,14 18,14 26,2c5,-8 9,-19 9,-24c0,-17 60,-85 75,-85c13,0 25,21 25,46c0,8 5,21 12,28c10,10 15,9 28,-7c16,-19 18,-20 63,-2c25,9 55,26 66,37l21,19l-48,48c-31,31 -60,50 -83,55c-47,9 -77,32 -61,48c19,19 14,37 -13,50c-21,10 -30,8 -53,-9c-15,-11 -37,-23 -50,-27c-31,-10 -28,12 4,26c21,10 25,17 20,40c-4,22 -2,28 13,28c22,0 65,45 57,59c-4,5 -26,13 -50,16c-59,9 -68,17 -60,49c8,35 21,41 43,22c21,-19 41,-21 41,-3c0,14 44,57 59,57c5,0 14,6 20,14c10,12 8,19 -8,35c-12,12 -30,21 -41,21c-27,0 -38,29 -17,45c10,7 17,16 17,21c0,4 12,20 26,35c36,38 26,59 -27,59c-22,0 -39,3 -37,8c2,4 14,28 27,53c23,44 23,79 2,79c-5,0 -24,-20 -42,-45c-36,-50 -44,-54 -59,-25c-24,44 -51,12 -84,-102c-16,-57 -87,-157 -126,-178c-25,-13 -27,-4 -35,166c-7,130 -6,132 16,148c36,25 49,21 43,-13c-8,-41 14,-51 40,-18c15,18 28,24 46,21c14,-2 31,0 39,5c22,14 -30,88 -75,107c-57,24 -40,34 45,27c92,-7 110,5 65,43c-16,14 -37,28 -47,32c-16,7 -14,13 23,54c22,26 36,49 31,53c-13,7 -85,-29 -111,-55c-20,-20 -20,-20 -20,18l-1,37l-19,-24c-11,-13 -27,-49 -36,-80c-15,-48 -35,-80 -55,-81c-3,0 -2,32 2,71c7,60 16,85 63,168c57,100 63,115 46,126c-17,10 -51,-15 -66,-50c-28,-69 -44,-46 -44,65c0,50 -5,73 -23,100l-22,35l-5,-150l-5,-150l-37,51c-21,28 -45,58 -54,65c-32,27 -9,-61 37,-140c39,-68 43,-82 47,-158c3,-46 1,-83 -4,-83c-14,0 -42,80 -48,139c-3,29 -11,60 -18,68c-10,13 -14,13 -25,-3c-7,-10 -13,-26 -13,-36c0,-25 -12,-23 -44,7c-32,30 -66,33 -66,6c0,-10 12,-40 27,-67c60,-112 58,-105 33,-124c-14,-11 -21,-25 -18,-41c4,-30 33,-37 59,-13c19,17 19,16 19,-35c0,-56 1,-55 -51,-20c-48,34 -53,-5 -9,-74c22,-35 26,-47 15,-47c-9,0 -21,-11 -27,-25c-11,-24 -12,-25 -37,-8c-14,9 -49,36 -79,60c-55,45 -79,53 -88,29c-8,-20 22,-73 52,-93l26,-16l-34,-11c-26,-9 -33,-16 -33,-36c0,-18 5,-25 20,-25c23,0 58,-31 51,-44c-3,-5 3,-20 14,-34c25,-31 25,-37 0,-37c-26,0 -68,-20 -74,-35c-2,-7 2,-22 10,-34c13,-17 21,-20 59,-14c36,4 46,2 51,-11c8,-20 41,-21 60,-1c17,16 44,20 44,7c0,-5 -9,-17 -20,-27c-11,-10 -20,-26 -20,-37c0,-24 37,-24 63,0c19,17 20,16 13,-21c-6,-30 -4,-39 10,-44c10,-4 22,0 29,11c10,13 14,14 18,4c2,-7 11,2 19,22l16,35l11,-28c15,-38 14,-74 -2,-80c-8,-3 -43,-8 -78,-12c-74,-8 -108,3 -179,54c-74,54 -111,31 -47,-29l32,-30l-43,15c-48,16 -88,42 -145,92c-46,41 -62,38 -62,-8c0,-34 -1,-34 -57,-44c-71,-12 -88,-27 -64,-54c27,-30 70,-43 125,-39l50,3l-29,-30c-32,-33 -39,-62 -16,-71c19,-7 46,8 89,51c20,20 41,33 48,30c7,-5 1,-14 -17,-26c-40,-26 -51,-49 -30,-64c9,-7 16,-22 16,-33c0,-32 15,-34 56,-7c20,14 42,25 49,25c6,0 22,11 35,25c13,14 26,23 29,20c2,-3 -16,-27 -42,-53c-33,-34 -46,-54 -41,-65c8,-21 23,-21 52,-1c21,14 22,14 22,-10c0,-36 14,-32 40,9c21,35 40,46 40,23c0,-7 6,-5 18,4c9,9 34,18 54,22c42,8 98,64 98,98c0,16 3,19 11,11c33,-33 -37,-126 -170,-224l-65,-47l-40,27c-56,39 -107,64 -114,57c-3,-4 2,-22 11,-41l17,-35l-28,6c-15,4 -44,15 -64,25c-47,24 -48,24 -48,-5c0,-34 -13,-39 -60,-25c-31,9 -43,10 -52,1c-12,-12 -138,-17 -138,-6c0,3 5,14 11,26c18,34 4,30 -47,-12c-57,-47 -67,-49 -58,-15c5,20 3,24 -10,19c-21,-8 -21,15 0,44c33,48 2,33 -55,-25c-32,-34 -68,-64 -80,-68c-28,-9 -152,49 -205,95c-32,28 -66,77 -66,95c0,3 11,5 25,5c17,0 29,-8 37,-24c20,-46 64,-44 55,2c-4,23 -1,21 30,-16c19,-23 43,-42 54,-42c16,0 19,7 19,54c0,30 4,57 9,60c4,3 27,-12 49,-34c38,-38 82,-53 82,-29c0,6 -14,31 -32,55c-32,45 -31,77 2,37c10,-13 21,-23 25,-23c3,0 13,-7 21,-15c9,-8 27,-15 41,-15c25,0 25,1 10,18c-25,27 -21,39 16,58c43,22 43,21 22,44c-18,20 -18,20 19,20c50,0 76,15 76,44c0,25 -17,36 -55,36c-36,0 -55,10 -55,31c0,27 -25,24 -87,-11c-62,-35 -73,-37 -66,-10c3,12 -1,22 -11,26c-9,3 -16,17 -16,31c0,18 -4,24 -15,19c-8,-3 -22,-9 -30,-12c-11,-4 -15,1 -15,18c0,41 -11,39 -67,-12c-57,-52 -77,-58 -132,-39c-35,12 -36,16 -17,54c22,43 11,55 -49,55c-45,0 -57,4 -73,25c-28,35 -61,188 -44,199c5,3 12,-21 15,-52c5,-59 39,-142 57,-142c13,0 30,43 31,78c0,24 2,23 15,-12c19,-52 41,-76 71,-76c26,0 28,7 13,45c-8,20 -6,29 9,44c18,18 20,18 47,-36c31,-60 71,-96 78,-72c2,8 9,33 17,57l13,43l15,-25c9,-14 19,-26 24,-26c19,0 119,53 124,66c9,23 -76,107 -121,121c-52,17 -61,27 -61,71c0,33 -3,37 -29,40c-17,2 -36,-4 -50,-16c-26,-24 -54,-34 -61,-22c-3,5 8,17 24,26c25,15 29,22 24,46c-4,22 -2,28 11,28c24,0 71,49 59,61c-6,6 -32,16 -59,23c-46,12 -49,14 -47,45c2,43 7,47 38,27c26,-17 45,-14 45,7c0,15 38,51 63,60c40,15 8,67 -42,67c-10,0 -21,6 -24,13c-5,13 24,66 61,111c23,28 23,31 6,43c-10,7 -30,13 -46,13c-15,0 -28,2 -28,4c0,2 11,28 25,59c24,51 25,87 4,87c-5,0 -25,-22 -45,-50c-20,-27 -39,-50 -43,-50c-4,0 -13,11 -19,25c-6,14 -16,25 -21,25c-11,0 -49,-88 -58,-132c-3,-18 -14,-49 -24,-69c-19,-39 -106,-139 -120,-139c-5,0 -9,38 -9,85c0,47 -5,104 -12,128c-16,61 -1,127 32,144c24,12 25,11 28,-20c5,-47 17,-53 43,-18c16,21 26,28 37,22c21,-12 52,-2 52,16c0,28 -55,92 -87,104c-34,11 -42,24 -21,31c7,3 33,0 59,-5c54,-11 99,-3 99,16c0,7 -18,26 -40,43c-22,16 -40,32 -40,35c0,3 16,24 35,46c37,44 44,63 21,63c-16,0 -86,-46 -103,-68c-11,-13 -13,-10 -13,21c0,20 -4,37 -8,37c-13,0 -51,-86 -58,-130c-4,-22 -11,-40 -17,-40c-5,0 -16,-8 -23,-17c-12,-16 -13,-14 -14,19c0,69 22,142 71,234c53,98 61,134 31,134c-23,0 -46,-26 -59,-65c-17,-53 -28,-32 -33,65c-4,76 -10,102 -27,130l-23,35l-1,-75c0,-41 -4,-113 -7,-159l-7,-83l-40,58c-74,108 -81,41 -10,-93c45,-84 45,-86 44,-181c0,-99 0,-99 -29,-27c-5,11 -13,53 -19,94c-5,41 -14,78 -20,84c-16,16 -31,-2 -31,-39c0,-42 -8,-43 -45,-4c-16,17 -37,30 -47,30c-28,0 -22,-42 17,-120c38,-76 42,-98 20,-106c-20,-8 -28,-40 -15,-64c13,-24 33,-26 50,-5c22,26 30,16 30,-35c0,-27 -3,-50 -7,-50c-3,0 -21,11 -39,25c-18,14 -35,25 -38,25c-3,0 -6,-15 -6,-33c0,-22 11,-47 30,-73c33,-44 37,-56 15,-48c-9,4 -19,-3 -26,-20c-7,-14 -16,-26 -20,-26c-4,0 -42,29 -84,65c-42,36 -83,65 -91,65c-35,0 -4,-99 39,-121c22,-12 22,-13 -11,-26c-18,-7 -35,-20 -39,-28c-7,-19 16,-48 32,-41c15,5 51,-34 47,-53c-2,-7 6,-24 18,-36c23,-25 21,-28 -25,-39c-56,-14 -72,-48 -37,-79c16,-14 23,-15 51,-4c30,11 34,10 51,-10c21,-26 48,-30 56,-8c4,8 17,15 31,15l24,0l-27,-36c-25,-32 -26,-36 -11,-51c14,-15 18,-15 41,1l26,16l0,-34c0,-40 12,-52 32,-33c7,8 18,12 24,10c5,-2 17,11 26,29l15,33l13,-53c7,-29 10,-56 7,-59c-10,-9 -88,-22 -135,-23c-48,0 -69,9 -127,55c-51,41 -71,47 -85,30c-10,-12 -5,-22 23,-50c29,-29 32,-35 14,-29c-50,15 -90,39 -133,80c-59,58 -78,68 -94,48c-10,-11 -10,-20 -2,-39c13,-27 16,-25 -78,-42c-38,-7 -45,-12 -45,-32c0,-40 47,-66 116,-66l59,1l-25,-26c-14,-15 -25,-38 -25,-53c0,-44 39,-36 88,18c22,25 46,45 51,45c20,0 12,-16 -19,-38c-33,-25 -38,-46 -15,-68c8,-9 15,-26 15,-40c0,-15 6,-24 15,-24c8,0 15,4 15,10c0,5 19,19 43,31c23,11 52,32 64,47c12,14 25,23 29,20c3,-4 -15,-29 -41,-57c-47,-50 -56,-83 -23,-89c9,-2 26,6 37,17l21,21l0,-30c0,-39 15,-38 36,3c22,42 21,42 38,28c10,-9 15,-8 19,2c3,8 23,17 45,21c46,7 90,47 109,98l11,33l1,-35c1,-54 -55,-124 -176,-221l-62,-50l-62,46c-86,63 -111,57 -73,-18c11,-21 12,-28 3,-19c-7,6 -22,12 -33,12c-12,0 -34,9 -51,20c-41,27 -57,26 -49,-5c8,-33 -17,-42 -64,-25c-33,12 -37,11 -54,-10c-24,-30 -19,-55 10,-54c26,1 27,-4 7,-30c-22,-29 -19,-34 17,-38c27,-2 33,-7 33,-28c0,-19 5,-25 25,-25c21,0 25,-4 22,-27c-4,-31 0,-33 30,-17c18,10 25,8 40,-11c19,-24 24,-65 8,-75c-5,-3 -18,3 -30,15c-21,21 -64,27 -75,10c-3,-5 -15,-10 -26,-10c-24,0 -24,-17 -1,-43c17,-19 23,-99 9,-114c-4,-3 -26,15 -50,40c-55,60 -72,61 -63,6l7,-42l-36,7c-19,3 -51,9 -70,12c-28,5 -35,3 -35,-9c0,-19 54,-65 85,-73c21,-5 23,-8 12,-31c-13,-29 1,-43 46,-43c20,0 27,-5 27,-20c0,-14 10,-22 33,-28c25,-6 33,-15 37,-37l5,-30l22,35c15,22 23,29 23,18c0,-9 6,-21 14,-25c8,-4 21,-24 30,-43c30,-63 51,-95 85,-127c37,-37 38,-38 61,-20c9,6 4,0 -11,-14c-43,-43 -134,-72 -199,-65c-35,4 -61,13 -70,24c-20,24 -35,22 -97,-11c-51,-26 -53,-27 -53,-7c0,11 -7,23 -16,27c-10,3 -14,13 -10,25c5,20 -3,21 -46,3c-15,-6 -18,-2 -18,19c0,27 -14,35 -26,15c-14,-23 -99,-69 -127,-69c-24,0 -60,13 -76,26c-2,2 4,13 14,24c29,32 13,50 -48,50c-61,0 -80,14 -103,77c-16,45 -19,134 -3,95c5,-13 7,-28 4,-33c-8,-12 27,-90 47,-107c19,-15 27,-6 38,42l7,31l10,-25c21,-51 89,-86 87,-45c-1,11 -5,29 -9,40c-5,11 -5,17 0,13c4,-4 14,-3 22,4c7,6 15,9 16,7c2,-2 15,-23 30,-46c27,-42 62,-70 70,-56c2,5 10,25 17,46l12,39l23,-22l22,-21l57,22c32,11 60,27 63,35c7,19 -73,92 -111,99c-17,4 -41,13 -54,21c-18,12 -20,18 -12,35c6,10 8,24 5,29c-9,15 -66,12 -84,-4c-9,-7 -26,-17 -38,-20c-32,-10 -29,12 3,26c20,9 24,17 19,35c-4,16 -1,23 8,23c17,0 67,38 67,50c0,5 -13,11 -30,14c-16,3 -43,9 -60,12c-31,6 -38,25 -20,54c8,13 13,13 40,-2c30,-17 31,-17 40,6c4,12 24,31 44,40c53,25 45,55 -16,70c-16,3 -28,12 -28,18c0,6 18,33 41,60c22,26 37,52 34,58c-3,5 -24,10 -46,10c-23,0 -39,3 -37,8c2,4 14,28 28,55c19,38 21,49 11,60c-10,10 -21,2 -55,-38c-43,-49 -43,-49 -57,-27c-8,12 -20,22 -27,22c-13,0 -53,-81 -66,-132c-7,-32 -120,-153 -134,-144c-5,3 -12,52 -16,108c-10,149 -9,161 15,181c30,24 39,21 39,-13c0,-35 18,-39 45,-10c12,14 25,17 46,13c21,-4 30,-1 35,11c9,24 -42,86 -77,93c-16,3 -32,9 -34,13c-8,13 18,17 70,11c102,-13 122,7 54,50l-41,26l36,33c31,29 47,60 31,60c-17,0 -83,-34 -102,-52l-23,-21l0,31c0,18 -4,32 -8,32c-12,0 -48,-69 -56,-105c-4,-16 -18,-38 -32,-48c-23,-17 -24,-17 -24,2c0,55 26,132 67,195c57,88 67,115 49,122c-22,9 -52,-12 -66,-46c-20,-49 -35,-30 -40,51c-3,52 -11,84 -25,105l-20,29l-3,-132c-1,-73 -6,-133 -10,-133c-4,1 -25,23 -46,50c-22,28 -43,50 -48,50c-21,0 -4,-60 37,-125c38,-61 46,-83 51,-142c4,-42 3,-73 -3,-76c-13,-8 -39,56 -47,114c-8,52 -27,86 -44,75c-7,-4 -12,-18 -12,-32c0,-31 -14,-30 -52,1c-61,52 -75,8 -24,-75c42,-67 43,-79 16,-103c-17,-14 -18,-21 -10,-37c11,-21 44,-27 55,-10c13,22 25,8 25,-30c0,-46 -4,-47 -45,-20c-16,11 -33,20 -37,20c-19,0 -5,-53 22,-83c35,-40 37,-47 12,-47c-9,0 -23,-9 -30,-20c-12,-20 -15,-19 -91,35c-44,30 -86,55 -95,55c-32,0 -9,-69 32,-96l26,-17l-35,-11c-19,-6 -34,-17 -34,-25c0,-14 4,-17 57,-41c14,-7 24,-18 22,-24c-3,-7 4,-21 16,-31c28,-25 25,-32 -13,-39c-19,-3 -42,-12 -52,-19c-15,-12 -16,-17 -5,-36c10,-20 17,-22 54,-17c34,5 47,3 65,-13c22,-19 51,-19 51,0c0,5 12,9 27,9l26,0l-23,-24c-38,-42 -10,-74 37,-41c20,14 21,13 19,-18c-1,-32 5,-35 44,-26c8,2 23,15 32,28l17,25l10,-28c26,-66 12,-76 -108,-76c-70,0 -79,3 -143,41c-53,32 -72,39 -81,30c-8,-8 -9,-16 0,-29c10,-16 8,-18 -17,-14c-18,2 -30,12 -33,24c-4,12 -12,18 -25,16c-10,-2 -37,10 -60,25c-44,31 -65,28 -60,-6c1,-12 -1,-23 -5,-24c-19,-7 -27,-1 -27,22c0,22 -2,24 -26,15c-35,-14 -44,-12 -38,5c13,33 -9,34 -46,2c-58,-49 -84,-60 -122,-53c-57,11 -66,21 -46,54c23,38 8,52 -52,52c-35,0 -51,5 -67,22c-33,37 -65,169 -44,183c7,4 11,-9 11,-37c0,-45 29,-120 50,-133c17,-10 40,21 41,54l1,26l11,-27c19,-41 48,-68 74,-68c26,0 26,0 13,36c-9,21 -7,29 7,40c25,18 33,17 33,-5c0,-26 73,-106 88,-97c7,4 12,16 12,27c0,11 5,29 11,41l11,20l21,-20l22,-20l63,28c35,17 62,35 62,44c0,8 -16,24 -35,36c-19,12 -35,28 -35,35c0,8 -23,20 -54,29c-56,16 -85,39 -66,51c17,11 11,42 -10,48c-11,3 -42,-6 -70,-21c-72,-37 -83,-18 -13,24c14,9 16,14 6,26c-14,17 -8,28 17,28c9,0 27,11 39,24c22,23 22,25 4,34c-10,6 -36,13 -58,17c-54,10 -55,11 -43,45c11,34 23,37 51,13c15,-14 21,-15 24,-5c7,19 45,57 71,71c12,6 22,18 22,26c0,17 -30,35 -59,35c-28,0 -36,18 -17,39c9,10 16,21 16,26c0,5 12,21 26,36c36,37 26,59 -25,59l-39,0l30,55c25,47 28,58 17,71c-11,14 -18,10 -56,-33l-43,-48l-20,25c-20,24 -21,24 -35,6c-8,-10 -26,-53 -40,-96c-19,-58 -38,-90 -76,-133c-28,-31 -57,-57 -64,-57c-9,0 -15,25 -19,88c-3,48 -8,108 -12,135c-7,53 10,90 45,100c18,4 21,1 21,-29c0,-40 20,-45 43,-11c12,18 22,23 45,19c16,-2 33,1 37,8c12,20 -41,87 -80,100c-59,19 -40,31 47,28c72,-3 83,-1 86,15c2,9 -2,17 -10,17c-7,0 -26,12 -41,26l-29,25l36,39c20,22 36,45 36,51c0,16 -39,2 -88,-32c-23,-16 -44,-29 -46,-29c-2,0 -1,11 1,24c3,13 0,27 -6,31c-13,7 -61,-87 -61,-120c0,-11 -12,-28 -25,-38l-25,-18l0,33c1,62 21,122 71,208c53,92 60,120 31,120c-23,0 -47,-25 -61,-63c-19,-48 -29,-29 -33,61c-2,64 -8,94 -22,115c-10,15 -21,26 -23,23c-2,-2 -7,-65 -11,-140l-7,-136l-42,55c-24,30 -48,55 -54,55c-20,0 0,-61 44,-135c39,-66 42,-75 45,-159c3,-63 1,-86 -7,-82c-6,4 -11,15 -11,25c0,9 -4,21 -10,27c-5,5 -12,32 -16,59c-11,97 -45,139 -52,67c-4,-38 -20,-41 -52,-7c-13,14 -32,25 -42,25c-29,0 -22,-46 17,-110c40,-66 43,-80 15,-98c-24,-15 -26,-35 -4,-57c15,-14 18,-14 40,0c13,8 25,15 27,15c2,0 4,-20 6,-45c1,-25 -1,-45 -5,-45c-4,0 -22,9 -40,21c-62,38 -72,4 -19,-65c39,-51 42,-58 21,-50c-9,3 -20,-3 -28,-15c-7,-12 -18,-21 -24,-21c-6,0 -43,25 -83,55c-78,59 -101,67 -101,34c0,-28 18,-60 49,-86c24,-21 25,-22 5,-23c-11,0 -29,-6 -40,-14c-15,-12 -17,-18 -8,-33c6,-10 17,-18 25,-18c25,-1 56,-28 52,-44c-2,-9 5,-25 17,-36l22,-19l-49,-16c-50,-16 -65,-39 -42,-66c9,-11 23,-13 51,-9c32,6 44,3 62,-14c21,-20 56,-21 56,-1c0,4 11,10 25,12c32,6 31,1 -1,-33c-14,-15 -23,-32 -20,-38c9,-15 49,-14 64,1c9,9 12,4 12,-25c0,-27 4,-37 15,-37c9,0 18,6 21,14c3,8 12,12 20,9c9,-3 18,5 25,23l12,29l15,-47c9,-27 13,-50 10,-54c-11,-10 -143,-25 -173,-18c-16,3 -56,24 -89,45c-32,22 -64,39 -72,39c-28,0 -26,-24 4,-51c40,-36 40,-41 0,-27c-44,15 -75,35 -126,81c-54,48 -88,48 -85,0c3,-31 2,-31 -50,-38c-71,-10 -90,-21 -77,-44c16,-31 77,-54 131,-49l48,5l-29,-33c-60,-69 3,-90 69,-24c37,38 61,50 61,32c0,-5 -11,-15 -25,-22c-32,-17 -41,-47 -21,-69c9,-10 13,-21 10,-24c-4,-4 -1,-13 6,-22c11,-13 16,-12 42,10c16,14 36,25 43,25c7,0 27,12 44,26c45,37 38,15 -9,-31c-22,-21 -40,-45 -40,-52c0,-22 28,-26 55,-9c24,16 25,16 25,-9c0,-34 11,-31 39,12c17,27 25,32 31,22c7,-11 12,-10 28,4c10,9 30,17 45,17c34,0 91,50 104,92l11,33l1,-38c1,-32 -6,-46 -46,-89c-27,-28 -81,-75 -121,-105l-72,-54l-43,29c-23,16 -57,37 -74,46c-33,16 -33,16 -33,-7c0,-12 7,-34 17,-47c9,-14 10,-19 3,-12c-8,6 -22,12 -32,12c-11,0 -36,9 -58,20c-39,20 -55,15 -44,-14c9,-23 -23,-31 -64,-16c-34,12 -37,11 -58,-14c-21,-24 -44,-35 -44,-20c0,3 11,20 25,38c52,69 19,100 -37,35l-39,-44l-20,25l-21,25l-18,-23c-10,-12 -26,-44 -36,-70c-21,-55 -51,-95 -107,-140c-30,-24 -43,-29 -48,-20c-3,7 -9,63 -13,124c-6,96 -5,114 9,128c9,9 25,16 36,16c16,0 18,-5 13,-25c-5,-20 -2,-25 13,-25c11,0 27,8 36,18c12,13 26,17 46,14c16,-2 31,1 35,6c10,16 -42,70 -79,82c-56,19 -40,28 43,27c44,-1 78,2 79,8c2,6 -14,19 -35,30c-20,11 -39,21 -41,23c-3,1 14,18 37,38c23,20 40,40 37,45c-7,11 -68,-13 -107,-42l-28,-20l0,33l-1,33l-23,-29c-13,-15 -28,-45 -34,-65c-6,-20 -21,-42 -33,-49c-21,-14 -22,-13 -17,42c4,48 13,68 61,139c61,88 68,107 39,107c-23,0 -43,-17 -66,-54c-24,-39 -36,-20 -36,61c0,51 -4,67 -25,90l-24,28l-1,-125l0,-125l-53,55c-47,50 -52,53 -55,32c-2,-12 9,-43 25,-68c61,-98 73,-127 73,-181c0,-29 -3,-53 -7,-53c-12,0 -41,71 -47,113c-7,50 -23,72 -42,56c-8,-6 -14,-20 -14,-30c0,-25 -7,-24 -51,7c-37,25 -59,25 -59,0c0,-7 19,-41 42,-75l41,-62l-21,-15c-26,-18 -28,-37 -7,-54c12,-10 20,-9 40,4l25,16l0,-40c0,-43 -6,-48 -36,-25c-26,20 -54,19 -54,-2c0,-10 16,-35 35,-55c27,-31 31,-38 16,-38c-10,0 -24,-7 -31,-15c-19,-22 -29,-19 -103,31c-38,25 -76,44 -85,42c-25,-5 -16,-38 18,-70c17,-15 30,-30 30,-32c0,-3 -12,-6 -27,-8c-33,-4 -44,-35 -16,-44c40,-13 62,-28 56,-37c-3,-6 6,-20 21,-32l28,-22l-39,-6c-21,-4 -47,-12 -57,-20c-17,-12 -17,-14 1,-36c15,-19 24,-22 44,-15c31,10 58,6 76,-12c18,-18 28,-18 43,1c7,8 22,15 33,15c20,0 20,0 -1,-23c-12,-13 -22,-29 -22,-35c0,-16 52,-15 69,1c11,10 12,7 7,-16c-8,-32 15,-47 39,-27c8,7 15,9 15,4c1,-5 10,2 21,15c23,28 28,25 35,-21c6,-34 5,-35 -32,-41c-22,-4 -66,-7 -99,-7c-50,0 -68,5 -105,30c-24,16 -57,32 -71,35c-15,4 -30,13 -33,20c-4,11 -14,13 -37,8c-30,-6 -31,-5 -19,17c21,39 -3,47 -47,17c-25,-17 -46,-24 -59,-21c-12,3 -25,1 -28,-5c-9,-13 -56,-15 -56,-2c0,5 7,11 15,15c10,4 15,20 15,51c0,25 -3,45 -6,45c-3,0 -23,-15 -46,-32c-58,-47 -110,-46 -211,6c-72,36 -204,142 -192,154c3,3 11,0 17,-6c18,-18 38,-15 38,6c1,16 1,16 14,0c7,-10 19,-18 26,-18c6,0 23,-9 37,-20c31,-24 43,-18 43,22l0,30l36,-31c40,-36 55,-36 65,0c6,22 7,22 8,2c1,-13 14,-29 35,-41l33,-20l27,30c17,20 26,42 26,65c0,30 3,34 18,28c45,-19 55,-19 50,1c-3,10 -9,27 -13,37c-5,12 -2,17 9,17c20,0 20,4 0,41c-21,41 -10,48 24,16c17,-16 39,-27 56,-27c24,0 26,3 21,23c-12,38 -11,40 27,59c39,19 71,55 61,71c-3,5 -30,7 -59,5c-56,-5 -61,-1 -43,34c18,34 3,31 -45,-12c-52,-44 -71,-50 -61,-20c5,14 2,20 -9,20c-20,0 -20,19 0,48c32,46 -11,21 -66,-38c-36,-39 -64,-60 -78,-60c-30,0 -137,50 -187,87c-40,30 -85,97 -73,109c14,13 55,-6 66,-31c7,-15 20,-25 33,-25c17,0 20,5 17,25c-3,14 -1,25 3,25c5,0 9,-4 9,-9c0,-17 50,-61 70,-61c18,0 20,6 20,54c0,30 4,57 8,60c5,3 25,-12 45,-33c72,-77 112,-55 52,28c-28,39 -33,51 -21,51c9,0 19,-7 22,-15c8,-21 67,-55 94,-55l23,0l-22,24l-23,25l33,20c19,12 39,23 44,24c6,2 1,14 -9,26l-19,21l41,0c44,0 72,19 72,50c0,21 -19,30 -66,30c-28,0 -36,5 -44,26c-9,22 -15,25 -36,20c-15,-4 -43,-18 -63,-32c-44,-30 -65,-31 -56,-4c4,13 1,22 -9,26c-9,3 -16,17 -16,31c0,20 -4,24 -17,18c-47,-19 -56,-19 -48,3c13,45 -8,42 -62,-8c-60,-55 -90,-62 -144,-34c-29,15 -30,16 -14,34c9,10 15,29 13,42c-3,20 -10,24 -57,28c-43,4 -58,10 -74,31c-32,44 -61,199 -37,199c6,0 10,-22 10,-49c0,-50 28,-133 50,-146c16,-10 28,11 36,59l7,38l12,-37c17,-48 43,-75 72,-75c27,0 26,-2 12,38c-9,27 -8,34 10,53c20,21 21,21 26,3c21,-65 73,-132 94,-119c6,3 11,18 11,33c0,15 7,35 14,45c13,16 14,16 28,-5l15,-22l54,26c30,14 61,33 69,43c13,16 11,21 -21,49c-20,17 -39,39 -42,48c-3,10 -21,20 -42,24c-19,3 -46,15 -60,26c-20,16 -23,22 -13,37c31,50 -27,67 -88,26c-20,-14 -41,-25 -45,-25c-18,0 -8,19 21,40c24,17 28,25 20,40c-14,26 -13,30 8,30c20,0 62,39 62,58c0,10 -38,24 -95,34c-15,3 -19,11 -18,32c3,42 17,51 44,32c29,-20 39,-20 39,-2c0,15 45,66 58,66c5,0 14,6 20,13c16,19 -10,53 -48,60c-32,7 -39,27 -15,47c8,7 15,20 15,28c0,9 12,28 26,43c36,38 26,59 -26,59c-22,0 -40,2 -40,5c0,3 11,28 25,55c49,96 21,123 -40,39l-37,-52l-24,29c-29,36 -36,29 -65,-71c-11,-38 -26,-83 -33,-100c-16,-36 -103,-145 -116,-145c-13,0 -18,44 -25,197c-6,124 -6,132 14,152c31,31 49,27 47,-11c-1,-40 25,-49 43,-15c10,19 21,24 48,23c20,-1 38,4 40,10c7,19 -58,95 -93,110c-55,23 -32,34 56,27c71,-5 80,-4 80,11c0,19 -48,65 -67,66c-21,0 -15,18 22,59c38,42 47,75 18,64c-10,-3 -39,-21 -65,-40l-48,-33l0,30c0,17 -4,30 -9,30c-9,0 -45,-78 -55,-125c-4,-16 -18,-39 -30,-52l-23,-23l4,53c7,95 13,115 62,209c61,117 67,136 46,144c-22,9 -62,-31 -70,-68c-13,-58 -30,-23 -35,73c-4,75 -10,101 -27,129l-23,35l0,-162c0,-90 -3,-163 -7,-163c-5,0 -28,31 -53,68l-45,67l-3,-37c-2,-28 8,-58 44,-127c43,-83 47,-97 52,-181c3,-60 1,-90 -6,-90c-6,0 -13,13 -17,30c-4,16 -11,32 -16,35c-5,4 -9,23 -9,43c-1,72 -28,148 -46,129c-4,-4 -10,-24 -13,-44l-6,-37l-42,38c-74,67 -85,19 -22,-99l40,-77l-20,-22c-25,-26 -27,-59 -6,-76c13,-11 20,-9 40,10l25,23l0,-56c0,-31 -1,-57 -3,-57c-2,0 -18,11 -37,25c-19,14 -38,25 -42,25c-19,0 -6,-60 22,-98c34,-48 36,-52 15,-52c-9,0 -20,-11 -25,-25c-5,-14 -13,-25 -17,-25c-5,0 -42,29 -83,65c-75,65 -93,74 -105,55c-11,-18 15,-79 46,-104l29,-25l-36,-11c-30,-10 -35,-16 -32,-38c2,-19 9,-27 23,-27c24,0 58,-32 49,-46c-3,-6 6,-23 21,-39c28,-30 27,-33 -20,-44c-55,-14 -69,-42 -41,-81c12,-17 17,-18 41,-7c31,14 65,7 65,-13c0,-22 30,-26 47,-5c10,11 28,20 41,20l24,0l-27,-31c-14,-18 -25,-39 -23,-48c5,-24 34,-25 58,-1l22,22l-2,-34c-1,-18 -2,-39 -1,-45c1,-18 30,-16 37,1c3,8 12,12 19,10c8,-4 16,6 20,26c9,39 21,29 33,-27c13,-56 4,-62 -100,-70l-83,-5l-59,46c-89,69 -142,60 -74,-12c32,-33 32,-34 8,-27c-47,14 -84,38 -136,87c-62,59 -89,61 -89,8c0,-35 -1,-35 -59,-47c-69,-13 -82,-23 -67,-51c17,-32 77,-55 132,-50l48,5l-29,-34c-33,-37 -37,-55 -16,-72c19,-16 41,-4 88,49c23,24 42,38 49,34c8,-5 1,-16 -20,-33c-31,-26 -40,-54 -21,-66c6,-3 10,-17 10,-29c0,-13 6,-29 14,-35c12,-10 17,-8 25,7c6,11 28,27 49,35c22,9 49,28 60,44c15,20 21,23 22,12c0,-9 -18,-34 -40,-55c-47,-46 -54,-84 -15,-84c14,0 28,7 31,15c10,25 27,17 20,-9c-14,-55 31,-25 58,39c3,6 9,3 15,-5c10,-13 13,-13 22,3c5,9 21,17 35,17c43,0 83,32 109,85l24,50l1,-35c0,-20 -7,-47 -16,-60c-28,-41 -106,-119 -167,-167l-58,-45l-59,41c-82,58 -94,61 -88,25c3,-16 9,-38 13,-49c7,-16 6,-18 -6,-7c-7,6 -21,12 -31,12c-10,0 -32,9 -50,20c-43,26 -50,25 -46,-7c3,-24 -1,-28 -24,-31c-15,-2 -36,2 -47,8c-17,8 -25,6 -41,-10c-28,-28 -23,-66 8,-63c22,3 22,2 7,-27c-20,-38 -20,-38 18,-42c27,-3 32,-6 29,-27c-3,-21 0,-23 22,-19c23,5 26,2 26,-24c0,-28 2,-29 34,-23c28,6 36,3 45,-13c13,-25 14,-52 1,-72c-8,-13 -12,-12 -25,8c-11,15 -26,22 -51,22c-19,0 -34,-4 -34,-9c0,-5 -11,-11 -25,-13l-25,-3l26,-37c22,-30 25,-44 20,-72c-4,-20 -10,-36 -14,-36c-5,0 -26,18 -47,40c-52,53 -70,53 -61,-1l7,-42l-33,7c-84,19 -108,19 -108,3c0,-18 53,-61 87,-71c20,-6 21,-10 11,-32c-14,-30 0,-44 45,-44c15,0 27,-5 27,-11c0,-6 21,-37 46,-70c25,-33 50,-74 55,-92c11,-39 12,-107 1,-107c-11,0 -40,61 -46,100c-4,19 -10,41 -15,49c-12,19 -41,6 -41,-19c0,-25 -7,-25 -45,0c-33,22 -65,26 -65,9c0,-16 20,-50 54,-92c25,-32 28,-40 16,-47c-8,-6 -19,-10 -23,-10c-5,0 -7,-10 -5,-22c2,-15 11,-24 26,-26c14,-2 22,-10 22,-22c0,-17 -3,-18 -26,-8c-21,10 -27,9 -34,-2c-7,-12 -12,-12 -21,-3c-10,10 -17,9 -31,-4c-25,-22 -23,-32 14,-70c17,-18 30,-35 27,-37c-3,-3 -40,16 -82,41c-54,32 -81,43 -89,35c-16,-16 1,-52 33,-71c25,-15 27,-20 14,-25c-9,-3 -26,-6 -36,-6c-16,0 -19,4 -14,21c8,23 -1,23 -47,4c-15,-6 -18,-2 -18,19c0,14 -2,26 -5,26c-3,0 -25,-16 -51,-35c-56,-43 -85,-51 -135,-36c-42,13 -47,22 -24,41c18,15 20,39 3,42c-7,0 -32,2 -55,3c-52,1 -77,23 -97,83c-18,52 -21,106 -6,97c5,-3 10,-23 10,-44c0,-23 9,-51 23,-72c30,-45 44,-42 62,16c5,18 8,16 21,-12c15,-30 68,-62 81,-49c4,4 2,20 -4,36c-9,25 -9,30 3,30c8,0 14,5 14,10c0,21 18,9 30,-20c12,-30 63,-80 81,-80c5,0 12,12 15,28c11,45 24,55 45,36c16,-15 22,-15 67,0c27,9 57,25 67,36c16,18 15,19 -14,34c-17,9 -35,25 -41,36c-6,11 -26,22 -48,26c-20,3 -47,13 -59,20c-20,12 -21,17 -10,35c24,39 -37,53 -88,19c-16,-11 -36,-20 -42,-20c-22,0 -14,16 13,28c18,9 24,19 22,35c-2,16 3,23 18,25c24,3 61,38 51,48c-3,3 -29,11 -58,17c-58,13 -66,23 -45,52c13,17 18,18 35,7c28,-17 39,-15 45,6c4,11 19,25 34,32c51,26 54,31 36,51c-10,11 -27,19 -40,19c-31,0 -40,17 -20,39c9,10 16,21 16,25c0,4 12,17 27,30c33,29 23,46 -28,46c-21,0 -39,2 -39,6c0,3 11,22 25,42c52,76 24,102 -39,36c-42,-46 -44,-47 -55,-26c-25,47 -51,21 -85,-84c-13,-39 -32,-66 -78,-110c-46,-44 -62,-54 -68,-43c-4,8 -10,68 -14,135c-7,128 -5,138 39,146c16,2 19,-2 17,-19c-4,-31 16,-38 41,-15c14,13 31,19 47,16c14,-2 31,0 39,5c20,13 -32,77 -75,91c-58,20 -40,32 36,24c50,-5 74,-3 85,6c13,10 10,15 -19,35c-18,12 -39,24 -46,27c-9,3 -1,15 23,38c71,64 35,78 -50,19l-43,-29l0,33l-1,32l-24,-29c-13,-16 -29,-49 -35,-73c-7,-24 -19,-43 -26,-43c-8,0 -14,-4 -14,-10c0,-5 -4,-10 -8,-10c-13,0 4,112 21,145c9,17 34,57 56,90c45,66 50,85 23,85c-23,0 -43,-17 -66,-54c-25,-39 -36,-19 -36,66c0,57 -4,71 -25,95l-24,28l-1,-135c-1,-118 -2,-133 -15,-116c-7,10 -31,37 -52,59c-35,39 -38,40 -41,19c-4,-24 8,-50 58,-129c26,-43 34,-66 38,-123c3,-41 1,-70 -5,-70c-15,0 -43,67 -43,103c0,67 -45,113 -56,58c-4,-17 -9,-31 -12,-31c-3,0 -23,12 -43,26c-71,49 -76,4 -11,-93l37,-56l-23,-15c-43,-28 -14,-81 29,-54c27,17 29,16 29,-28c0,-22 -2,-40 -5,-40c-2,0 -19,9 -37,20c-18,11 -36,20 -40,20c-19,0 -5,-49 23,-83c20,-25 26,-37 16,-37c-8,0 -21,-10 -30,-22l-15,-23l-72,50c-89,61 -107,68 -114,49c-8,-22 10,-61 38,-79l25,-17l-54,-29c-30,-16 -57,-29 -60,-29c-3,0 -5,11 -5,25c0,16 -6,25 -15,25c-12,0 -14,7 -9,27c6,23 5,25 -12,19c-48,-20 -54,-19 -54,8c0,34 -9,33 -49,-8c-42,-44 -82,-60 -123,-52c-55,11 -63,19 -43,50c27,40 14,56 -45,56c-62,0 -83,18 -104,91c-18,60 -21,123 -6,114c6,-3 10,-25 10,-48c0,-43 32,-127 48,-127c15,0 32,24 32,46c0,33 17,38 24,9c9,-34 41,-65 67,-65c19,0 20,4 14,41c-5,29 -4,40 4,35c6,-4 11,0 11,8c0,27 18,17 29,-16c11,-31 67,-98 82,-98c4,0 11,15 14,33c11,49 24,61 46,41c17,-16 22,-16 64,0c24,10 54,25 66,35l22,18l-52,51c-31,31 -62,52 -75,52c-17,0 -41,11 -74,36c-2,1 3,12 10,24c11,18 10,23 -6,36c-22,16 -49,11 -85,-17c-13,-11 -30,-19 -37,-19c-23,0 -16,20 12,32c21,10 25,17 20,40c-4,22 -2,28 13,28c22,0 65,45 57,59c-4,5 -26,13 -50,16c-59,9 -68,17 -60,49c8,35 21,41 43,22c25,-22 38,-20 45,8c3,14 20,30 40,40c20,9 38,21 41,26c8,14 -32,50 -55,50c-28,0 -36,27 -16,49c9,10 16,21 16,26c0,5 12,21 26,36c33,34 24,49 -27,49c-21,0 -39,3 -39,8c0,4 12,25 25,47c27,44 33,85 11,85c-7,0 -31,-21 -51,-46l-38,-46l-21,27c-28,35 -36,26 -71,-80c-36,-109 -137,-239 -156,-202c-3,6 -9,76 -13,153c-6,123 -5,144 9,158c9,9 25,16 35,16c16,0 18,-5 14,-29c-9,-41 11,-47 42,-11c20,22 30,27 40,19c9,-7 19,-7 33,1c19,10 20,13 7,38c-18,35 -56,69 -80,74c-11,1 -21,9 -24,17c-4,11 9,12 67,6c52,-5 76,-4 87,5c13,11 10,17 -18,41c-18,16 -39,28 -45,29c-21,0 -16,10 29,59c34,36 39,46 26,49c-20,4 -74,-22 -105,-51l-23,-20l0,31c0,18 -4,32 -8,32c-9,0 -46,-77 -57,-118c-6,-20 -38,-62 -48,-62c-1,0 0,30 3,68c6,56 16,85 66,179c32,61 56,114 52,118c-17,18 -60,-7 -75,-43c-8,-20 -17,-39 -20,-42c-12,-13 -23,33 -23,100c0,60 -4,82 -23,110l-22,35l-5,-153l-5,-154l-43,61c-23,34 -47,61 -52,61c-23,0 -7,-59 37,-139c43,-79 47,-93 51,-168c3,-46 1,-83 -4,-83c-14,0 -44,82 -44,121c0,79 -42,133 -56,72c-3,-16 -7,-32 -8,-37c-1,-5 -19,6 -39,24c-37,32 -67,35 -67,6c0,-8 18,-50 41,-93l41,-77l-22,-18c-25,-20 -24,-55 2,-72c13,-8 22,-6 37,8c21,19 21,19 21,-33l0,-52l-37,26c-21,14 -41,25 -45,25c-18,0 -6,-50 22,-91c27,-40 28,-44 11,-51c-10,-3 -21,-13 -24,-22c-10,-26 -25,-19 -104,44c-41,33 -78,60 -83,60c-32,0 -9,-86 31,-113c25,-18 25,-18 -14,-35c-17,-7 -27,-19 -27,-32c0,-19 4,-22 33,-24c17,-1 45,-29 39,-39c-2,-5 5,-22 17,-37c23,-32 21,-34 -27,-45c-41,-9 -56,-34 -36,-63c13,-18 21,-21 59,-15c36,4 46,2 51,-11c8,-20 41,-21 60,-1c17,16 44,20 44,7c0,-5 -9,-17 -20,-27c-11,-10 -20,-26 -20,-37c0,-24 37,-24 63,0c19,17 20,16 13,-21c-6,-30 -4,-39 10,-44c10,-4 22,0 29,11c10,13 14,14 18,4c3,-7 11,2 20,22l15,35l11,-28c29,-76 11,-90 -114,-91c-67,-1 -73,1 -129,42c-61,44 -96,53 -96,26c0,-8 15,-29 33,-46c30,-28 31,-30 7,-23c-46,14 -94,43 -149,90c-29,25 -59,44 -65,42c-6,-2 -11,-19 -11,-38c0,-33 -1,-34 -50,-42c-91,-15 -103,-36 -45,-75c29,-19 45,-23 92,-20l57,3l-30,-31c-35,-36 -35,-67 -1,-72c16,-3 34,8 60,37c21,23 45,41 55,41c12,0 6,-10 -21,-34c-35,-33 -36,-35 -19,-53c9,-11 17,-27 17,-36c0,-26 19,-30 46,-8c15,12 33,21 40,21c7,0 29,14 49,31c49,44 44,25 -11,-33c-25,-27 -44,-54 -41,-61c6,-18 42,-20 57,-2c19,22 28,18 22,-10c-7,-37 15,-31 39,10c16,27 25,33 34,25c9,-7 16,-6 25,5c7,8 24,15 38,15c50,0 104,48 115,105c4,18 5,18 12,2c11,-26 -1,-59 -40,-104c-38,-44 -181,-156 -199,-156c-6,0 -40,19 -75,42c-72,46 -93,43 -67,-10c19,-38 20,-47 4,-31c-7,7 -21,12 -32,12c-12,0 -34,9 -51,20c-40,26 -45,25 -45,-10c0,-26 -4,-30 -26,-30c-14,0 -34,5 -45,11c-27,14 -59,-13 -59,-49c0,-20 4,-23 21,-19c15,4 19,2 15,-9c-3,-8 -9,-21 -12,-29c-5,-11 1,-15 25,-15c26,0 31,-4 31,-25c0,-20 5,-25 25,-25c20,0 25,-5 25,-25c0,-22 3,-25 25,-19c33,8 55,-11 55,-47c0,-37 -15,-44 -40,-19c-11,11 -25,20 -32,20c-10,0 -77,-20 -87,-27c-2,-1 6,-15 18,-31c21,-30 29,-96 13,-106c-5,-3 -26,13 -47,34c-22,22 -47,40 -57,40c-21,0 -22,-8 -8,-44c8,-23 7,-26 -13,-26c-12,0 -39,5 -60,11c-22,6 -46,7 -55,4c-14,-6 -10,-13 22,-41c22,-19 48,-34 58,-34c14,0 18,-7 16,-32c-3,-31 -1,-33 31,-36c23,-2 35,-9 38,-23c4,-12 14,-19 30,-19c17,0 27,-8 37,-30l12,-30l14,25c15,28 30,33 30,10c0,-8 5,-15 10,-15c6,0 15,-11 20,-25c12,-32 62,-109 74,-114c5,-2 20,-15 33,-29l23,-25l28,24c23,20 22,18 -4,-9c-33,-35 -151,-82 -208,-82c-17,0 -48,11 -68,25c-49,33 -58,32 -58,-11l0,-36l-37,6c-69,11 -75,11 -86,-6c-9,-13 -5,-21 21,-42c20,-18 32,-38 34,-59c2,-27 8,-33 31,-35c23,-3 27,-8 27,-33c0,-35 21,-46 56,-30c19,8 25,8 23,-2c-5,-42 1,-49 39,-45c57,5 49,-23 -13,-44c-56,-19 -86,-16 -123,13c-32,25 -52,24 -52,-1c0,-17 -7,-20 -50,-20c-27,0 -50,-4 -50,-10c0,-5 16,-20 35,-32c20,-14 35,-31 35,-43c1,-41 30,-58 72,-41c13,6 17,1 20,-26c3,-28 7,-33 27,-30c20,2 22,-1 17,-23c-6,-22 -3,-25 18,-25c13,0 27,-6 29,-12c4,-8 26,9 59,45c56,61 75,68 101,39c21,-24 13,-33 -24,-25c-38,7 -47,-17 -25,-63c20,-42 20,-54 2,-54c-8,0 -28,-11 -44,-25c-17,-14 -34,-25 -40,-25c-5,0 -15,-6 -21,-14c-6,-7 -32,-16 -59,-20c-113,-16 -167,-32 -171,-52c-6,-32 -21,-43 -69,-49c-77,-10 -78,-12 -47,-45c16,-16 44,-35 62,-41c23,-7 33,-16 29,-25c-3,-8 -9,-20 -12,-28c-4,-10 2,-16 18,-18c15,-2 24,-11 26,-25c2,-13 4,-23 5,-23c1,0 18,4 37,10c46,13 70,4 70,-26c0,-33 17,-30 40,9l20,32l0,-28c0,-21 7,-30 27,-38c52,-19 70,-9 94,56l12,30l11,-38l12,-39l19,36c20,37 33,46 32,24c-2,-60 15,-63 33,-5c8,25 15,35 17,25c3,-13 12,-15 39,-11c20,3 34,1 34,-5c0,-19 -70,-71 -112,-83c-24,-7 -49,-19 -55,-27c-7,-9 -36,-17 -68,-20c-34,-3 -55,-9 -55,-16c0,-23 45,-54 80,-58c19,-2 34,-7 34,-13c-2,-21 -55,-35 -175,-45c-269,-23 -331,-30 -352,-42c-12,-7 -28,-11 -36,-9c-27,5 -42,-8 -32,-27c9,-17 29,-28 85,-46c16,-5 12,-12 -25,-49l-44,-42l35,-3c19,-2 39,-8 44,-13c6,-5 18,-9 28,-9c10,0 21,-7 24,-15c9,-22 27,-18 54,10c30,32 36,26 15,-15c-24,-46 -6,-62 35,-32l30,22l14,-35c8,-19 18,-35 22,-35c3,0 24,14 45,31l39,31l-6,-46c-6,-41 -5,-46 13,-46c11,0 30,11 43,25c28,30 45,33 30,6c-16,-31 -12,-41 18,-41c15,0 34,-6 41,-13c11,-9 14,-9 18,1c7,19 30,14 36,-8c4,-15 14,-20 42,-20c23,0 35,-4 33,-12c-10,-30 -195,-101 -293,-113c-44,-6 -54,-3 -84,19c-54,40 -84,28 -44,-17c16,-19 16,-20 1,-14c-9,3 -45,9 -80,12c-35,4 -91,16 -126,27c-35,11 -66,17 -69,14c-16,-16 87,-96 126,-97c28,-1 23,-3 -22,-13c-22,-5 -28,-12 -25,-29c2,-16 13,-24 43,-30c51,-12 52,-13 31,-36c-22,-25 -13,-45 14,-31c25,14 30,13 30,-5c0,-24 21,-27 73,-11c42,13 64,7 37,-9c-19,-12 -10,-25 16,-25c17,0 28,-6 31,-20c7,-25 10,-25 34,2l20,23l-16,-39c-8,-21 -15,-42 -15,-47c0,-19 50,-8 79,17c25,21 31,23 31,9c0,-40 -31,-74 -95,-104c-114,-54 -146,-59 -218,-33c-34,12 -77,22 -96,22c-31,0 -33,-2 -27,-26c6,-22 4,-26 -11,-21c-97,28 -114,30 -123,21c-7,-7 -3,-22 14,-47c14,-20 24,-37 21,-37c-2,0 -28,6 -58,14c-62,16 -109,11 -105,-12c4,-20 68,-53 117,-59l40,-5l-30,-38c-32,-39 -35,-77 -7,-72c11,2 18,-8 22,-33c5,-24 14,-39 29,-44c13,-5 29,-16 36,-25c19,-23 36,-20 59,9l20,25l21,-26c22,-29 24,-36 15,-71c-5,-18 -14,-23 -40,-23c-18,0 -35,-4 -38,-9c-3,-4 -28,-11 -55,-15c-59,-8 -66,-15 -44,-46c15,-21 21,-22 76,-16l61,6l-42,-36c-45,-38 -47,-41 -33,-63c8,-12 15,-13 34,-4c21,10 24,9 23,-5c-1,-12 6,-17 22,-16c17,0 21,-4 16,-18c-6,-21 2,-22 36,-3c38,22 57,19 35,-5c-17,-18 -17,-20 -1,-26c10,-4 28,-2 42,4c19,10 24,9 24,-3c0,-8 7,-15 16,-15c14,0 14,-3 4,-15c-10,-12 -38,-15 -129,-15c-195,0 -299,-16 -226,-34c23,-6 52,-42 42,-52c-2,-3 -30,-9 -62,-14c-65,-11 -79,-19 -73,-46c4,-25 82,-31 133,-10c54,23 58,20 32,-21c-47,-76 -39,-100 23,-68c39,20 48,13 52,-40c4,-53 28,-57 73,-12c19,19 37,32 39,28c2,-3 0,-28 -5,-55c-5,-27 -7,-52 -4,-54c7,-8 50,34 97,95c44,57 59,64 34,14c-18,-33 -21,-81 -7,-81c5,0 21,15 35,33c24,30 26,31 26,9c0,-45 -17,-60 -89,-76c-85,-20 -128,-20 -161,-1c-28,16 -80,20 -80,6c0,-5 6,-12 13,-14c6,-3 -9,-6 -36,-6c-45,-1 -47,-2 -41,-26c6,-24 4,-25 -34,-25c-22,0 -47,-3 -56,-6c-28,-11 -17,-33 19,-40c19,-3 35,-10 35,-15c0,-5 -19,-21 -42,-35c-117,-72 -114,-109 4,-64c68,26 76,25 51,-2c-12,-13 -23,-32 -25,-43c-2,-16 2,-20 25,-18c22,2 27,-2 23,-12c-3,-8 -9,-22 -12,-30c-10,-24 21,-18 54,10c38,32 44,31 36,-2c-7,-25 -6,-27 9,-14c15,12 17,11 17,-5c0,-16 2,-15 23,4c32,30 49,29 41,-3c-8,-32 7,-32 60,-1c33,19 49,23 76,17l35,-7l-58,-22c-32,-12 -62,-22 -68,-22c-25,0 -69,-32 -69,-50c0,-23 31,-27 76,-10c15,6 29,8 31,6c3,-3 -9,-25 -26,-50c-17,-24 -31,-47 -31,-50c0,-14 49,-4 89,19c23,14 47,25 52,25c4,0 -1,-21 -11,-46c-25,-57 -25,-54 4,-54c16,0 26,-7 29,-22c6,-22 7,-22 38,7c27,26 30,27 25,9c-4,-13 -1,-26 8,-33c20,-17 67,8 95,51l21,33l-2,-48c-1,-26 2,-50 6,-55c5,-4 30,17 56,46l48,53l7,-50c8,-56 17,-62 52,-29c23,21 23,21 37,2c14,-18 15,-18 25,9c6,15 17,27 26,27c8,0 18,12 21,28c10,41 13,43 35,21c11,-11 26,-19 32,-17c7,2 27,36 46,76c37,77 50,90 43,42c-5,-38 7,-38 44,1c16,17 37,35 47,40c16,9 17,7 11,-18c-7,-25 -6,-27 9,-14c15,12 17,11 17,-5c0,-15 3,-14 26,7l26,24l-7,-85c-4,-47 -18,-122 -31,-168c-13,-45 -24,-85 -24,-87c0,-3 71,-4 158,-3l157,3l-1,25c0,14 -3,36 -5,49c-2,13 1,26 7,28c7,2 11,-4 10,-14c-1,-13 7,-19 27,-21c22,-3 36,5 64,34l35,37l-2,-29c-5,-67 9,-71 60,-19c32,33 36,34 47,18c7,-9 13,-25 13,-34c0,-28 20,-33 44,-10c20,19 23,20 39,4c15,-15 17,-15 26,10c6,15 17,27 26,27c8,0 15,5 15,11c0,7 10,9 25,5c15,-4 25,-2 25,4c0,6 4,9 10,5c8,-5 22,7 63,56c7,8 11,21 9,27c-11,35 58,-14 71,-50c3,-10 8,-11 26,0c28,16 28,16 47,-20c16,-32 17,-32 25,-10c5,12 13,22 19,22c16,0 12,-34 -15,-108c-14,-38 -25,-72 -25,-76c0,-10 308,-7 315,4c3,5 -1,33 -10,62c-12,42 -13,54 -3,57c7,2 26,17 42,33l28,29l-6,-35c-8,-43 5,-52 44,-29c29,17 32,17 64,-1c19,-10 39,-15 46,-11c6,4 20,-1 31,-11c19,-17 22,-17 30,-3c7,13 24,16 81,14c40,-1 82,-5 92,-10c16,-7 18,-5 13,10c-10,25 10,44 54,51c26,5 36,10 32,20c-3,8 1,14 10,14c10,0 17,-11 19,-28c2,-19 8,-26 20,-24c9,1 19,-2 23,-8c5,-8 11,-7 21,1c20,16 17,1 -10,-53l-23,-48l163,0c90,0 164,4 164,9c0,5 -7,28 -15,51c-14,39 -14,44 5,67c11,14 17,29 14,34c-9,16 4,10 48,-21c33,-23 56,-31 100,-33c32,-2 60,-6 63,-9c3,-2 -2,-24 -10,-48c-8,-23 -15,-44 -15,-46c0,-2 73,-4 161,-4l162,0l-7,47c-3,27 -9,61 -12,77c-6,25 -5,28 15,21c15,-5 21,-2 21,9c0,26 35,18 58,-14c19,-25 26,-28 46,-20c20,7 27,5 39,-13c15,-22 15,-22 31,-2c15,19 17,19 27,3c15,-27 54,-21 94,13l35,31l0,-36c0,-43 16,-47 50,-11c13,14 29,25 36,25c7,0 14,8 16,17c3,10 8,-1 12,-24c10,-54 21,-61 52,-32c24,22 24,22 39,3c14,-19 15,-18 21,4c3,12 12,22 20,22c7,0 20,14 29,30c15,29 16,30 40,14c14,-9 25,-21 25,-28c0,-6 10,5 21,24c21,34 22,35 32,13c6,-13 16,-23 23,-23c16,0 34,31 34,58c0,11 7,25 15,32c13,11 21,8 49,-19l34,-33l16,23c9,13 16,32 16,42c0,17 2,18 16,6c26,-21 9,-120 -41,-241c-7,-17 4,-18 154,-18c175,0 171,-2 150,57c-9,27 -7,34 16,57c31,31 35,32 35,6c0,-28 25,-35 55,-16c30,20 65,21 65,2c0,-24 20,-29 39,-12c16,15 19,15 31,1c18,-22 28,-18 32,13l4,27l11,-27c16,-36 30,-42 45,-18c14,22 43,27 52,8c5,-10 7,-10 12,-1c3,8 16,10 35,6c24,-4 28,-3 23,10c-6,17 17,33 67,47c32,10 35,4 14,-24c-21,-28 -19,-36 10,-36c16,0 25,-6 25,-15c0,-8 4,-15 9,-15c5,0 14,7 21,15c7,8 16,15 21,15c5,0 9,-7 9,-15c0,-25 55,-18 90,11c17,15 33,24 36,22c2,-3 -5,-34 -16,-69c-11,-35 -20,-65 -20,-67c0,-1 71,-1 158,0l157,3l-1,30c0,17 -2,44 -5,60c-4,27 -1,30 24,33c19,2 27,-1 27,-12c0,-22 13,-20 36,5l19,21l6,-24c4,-18 11,-23 34,-21c15,1 38,11 50,23c28,26 35,25 35,-4c0,-38 18,-41 51,-10c41,39 47,23 16,-41l-27,-55l158,0c87,0 161,2 164,5c3,3 -3,33 -13,66c-21,68 -24,93 -9,84c6,-4 17,-1 25,5c12,10 15,10 15,0c0,-8 8,-10 24,-6c18,4 28,0 40,-19c11,-16 26,-25 44,-25c15,0 34,-4 42,-10c9,-5 19,-5 26,1c7,6 15,4 23,-5c9,-11 7,-25 -9,-65l-20,-51l160,0c121,0 160,3 161,13c2,17 -1,34 -16,100l-14,58l31,-6c25,-6 30,-4 25,7c-9,25 40,9 58,-19c13,-20 22,-23 42,-18c19,4 32,0 49,-16c20,-19 24,-20 24,-6c0,22 6,21 38,-4c25,-19 26,-19 33,-2c5,15 18,18 70,18c35,0 78,-5 94,-9c17,-5 27,-5 22,-1c-4,5 0,16 9,26c13,14 21,16 41,8c30,-11 41,-5 25,13c-7,9 -6,17 4,26c12,11 14,9 14,-8c0,-12 5,-30 11,-41c9,-18 13,-19 27,-7c9,8 28,13 42,12c14,-1 28,3 32,9c4,7 12,0 19,-16c15,-34 25,-34 33,-2c7,28 21,33 30,10c8,-21 43,-19 56,4c7,14 7,27 -1,45c-7,14 -9,33 -5,42c6,15 14,10 52,-29c24,-26 49,-47 54,-47c13,0 40,42 34,52c-10,16 8,8 37,-16c15,-13 34,-26 41,-28c12,-4 -1,-61 -29,-135c-4,-10 31,-13 156,-13l161,0l0,28c-1,15 -7,56 -15,92c-16,75 -20,220 -5,220c5,0 21,-22 35,-50c28,-55 40,-64 33,-25c-8,38 6,30 21,-13c20,-58 39,-82 64,-82c13,0 28,-5 35,-12c8,-8 15,-8 26,1c11,10 18,6 36,-19c24,-34 44,-30 37,6c-5,27 5,31 23,9c14,-17 40,-20 40,-5c0,14 31,12 79,-5c31,-10 41,-11 42,-2c0,7 5,1 10,-12l10,-24l30,29l30,28l-3,-24c-6,-51 64,-33 103,27l19,28l-2,-48c0,-26 2,-50 6,-54c4,-5 25,11 47,35c22,23 42,42 44,42c11,0 4,-25 -12,-43c-17,-18 -17,-19 7,-15c14,2 30,-3 37,-12c10,-13 14,-12 35,8c31,29 42,28 34,-3c-5,-20 -3,-25 13,-25c11,0 24,-7 29,-16c8,-15 11,-15 36,1c24,16 26,16 26,1c0,-38 49,-28 102,22l27,25l-5,-35c-4,-20 -2,-38 4,-42c6,-3 33,12 60,33l50,40l7,-60l7,-59l157,2l156,3l-1,25c-1,14 -7,58 -15,97c-11,61 -11,75 0,85c11,11 13,9 8,-10c-7,-30 17,-29 50,4c14,14 26,24 27,22c23,-50 35,-64 61,-68c17,-3 31,-12 33,-22c2,-9 -10,-50 -26,-92l-30,-76l159,0c180,0 171,-5 144,84c-8,27 -15,55 -15,63c0,17 58,14 64,-4c7,-16 36,-17 36,-1c0,7 6,5 18,-4c17,-16 84,-33 113,-29c9,1 22,-5 29,-14c19,-22 43,-19 37,5c-6,24 1,25 27,5c14,-11 23,-12 33,-4c12,10 56,7 104,-7c20,-6 32,41 18,68c-12,21 -3,22 31,3c32,-19 61,-19 54,-1c-11,28 46,4 62,-26c14,-26 14,-34 0,-74l-15,-44l159,0c118,0 159,3 163,13c2,6 0,29 -5,51c-7,33 -6,41 12,53c11,8 20,21 20,29c0,19 7,18 39,-5c51,-37 110,-37 66,-1c-8,7 -15,16 -15,21c0,13 38,11 46,-2c3,-6 16,-8 29,-5c17,4 27,-1 39,-19c22,-34 36,-31 36,6c0,28 2,30 17,18c9,-8 40,-14 72,-15c31,0 66,-4 78,-8c19,-7 21,-5 16,13c-3,12 0,28 6,35c10,11 9,21 -4,45c-19,38 -11,39 37,6c46,-31 52,-31 44,-1c-5,22 -4,24 21,17c18,-5 30,-17 37,-38c15,-43 21,-47 46,-31c18,11 23,11 36,-6c8,-11 14,-26 14,-33c0,-7 5,-13 10,-13c6,0 10,8 10,18c0,9 4,24 9,31c8,12 13,11 30,-10l21,-24l21,24c13,16 18,32 14,45c-4,12 -8,31 -10,43c-2,11 -6,30 -10,42c-3,12 -5,21 -2,21c2,0 27,-29 55,-65c29,-36 57,-65 62,-65c14,0 38,53 32,70c-3,8 16,-4 41,-28c66,-60 95,-56 62,9c-15,28 -15,29 12,41c15,7 30,13 32,15c2,1 -11,20 -29,43c-40,51 -24,51 47,0c31,-22 62,-40 70,-40c20,0 16,28 -7,42c-30,19 -24,28 19,28c28,0 49,7 68,24l28,24l-40,6c-132,21 -275,68 -308,100c-21,22 -22,40 -1,32c9,-3 27,-9 42,-13c21,-5 24,-3 19,11c-4,9 -10,23 -13,31c-5,12 3,15 39,15c54,0 64,10 37,35c-29,26 -25,38 10,31c33,-6 80,8 80,24c0,6 -17,18 -37,27c-21,9 -33,17 -28,19c6,1 22,5 38,8c31,7 34,21 10,49c-17,18 -16,19 42,17c33,-1 64,-1 69,-1c16,2 -19,34 -51,48c-45,18 -41,33 10,33c42,0 77,14 65,25c-4,4 -26,11 -50,16c-83,19 -118,30 -118,38c0,4 31,20 70,35c76,30 120,60 120,82c0,19 -17,18 -107,-11c-42,-13 -78,-23 -79,-22c-2,1 10,22 27,46c50,75 32,82 -55,21c-125,-88 -165,-91 -285,-27c-149,78 -321,217 -321,259c0,5 18,-10 40,-32c46,-46 60,-50 60,-17c1,21 1,21 21,-5c58,-78 57,-78 51,-20c-6,65 4,66 67,7c26,-25 51,-45 56,-45c4,0 5,20 3,45c-3,46 0,53 19,34c18,-18 58,-7 61,19c5,32 17,27 53,-22c57,-80 83,-60 34,25c-28,49 -30,59 -13,59c6,0 20,7 30,17c12,11 33,16 63,15c32,-2 46,2 54,15c8,16 14,16 55,5c66,-17 86,-16 86,7c0,13 -20,32 -60,57c-33,20 -59,39 -57,41c2,2 30,-3 62,-12c45,-11 68,-12 97,-5c72,20 32,70 -56,70l-31,0l33,20c58,36 37,45 -92,42l-118,-3l7,40c4,23 3,41 -2,41c-5,0 -35,-9 -68,-21c-73,-26 -106,-21 -216,27c-123,54 -206,102 -234,136c-26,30 -25,54 1,44c8,-3 23,-1 33,6c14,9 27,5 65,-17c38,-22 63,-28 132,-33l86,-5l-6,24c-6,21 -4,20 21,-9c29,-34 43,-34 43,0c0,19 1,19 26,-1c32,-25 39,-26 62,-3c9,9 29,24 42,33c24,16 24,17 8,36c-26,29 -22,36 12,18c27,-14 30,-14 39,4c6,10 41,31 78,47c37,15 74,32 82,38c7,6 19,11 25,12c6,0 17,2 24,2c21,3 13,28 -13,40c-19,9 -25,19 -25,41c0,18 -7,34 -17,39c-18,11 -17,11 80,66c49,28 64,53 25,42c-51,-13 -203,-27 -234,-21c-30,5 -49,25 -24,25c6,0 10,6 10,14c0,10 -17,16 -57,21c-130,14 -223,46 -223,77c0,11 7,18 19,18c10,0 24,7 31,15c7,8 19,15 26,15c8,0 14,5 14,10c0,6 17,-1 37,-15c21,-14 48,-25 62,-25l23,0l-26,34c-14,19 -26,37 -26,40c0,3 22,6 48,6c27,0 52,3 55,7c4,3 -10,18 -31,32l-37,26l27,3c26,3 43,17 104,83c81,88 63,123 -41,79c-69,-29 -88,-27 -83,10c5,36 -8,38 -71,10c-58,-27 -80,-25 -164,10c-121,50 -162,100 -83,100c17,0 37,5 44,12c9,9 17,7 35,-10c26,-25 49,-27 96,-11c36,13 37,16 15,47c-18,26 -13,27 28,6l31,-16l-7,27c-6,22 -3,28 14,32c12,3 20,14 20,27c0,12 5,27 11,33c9,9 8,18 -5,37c-15,25 -15,28 11,75c16,27 25,52 22,55c-3,4 -44,-10 -90,-30c-46,-19 -107,-38 -136,-41c-48,-5 -54,-3 -82,25c-53,53 -34,86 33,58c49,-21 57,-1 22,51l-26,38l37,5c26,3 39,11 41,23c2,10 -3,17 -13,17c-14,0 -12,6 9,31c36,42 35,66 -1,42c-23,-15 -50,-18 -163,-18c-123,0 -140,2 -184,24c-44,22 -47,25 -28,32c16,6 22,17 22,41l0,32l28,-27c24,-23 34,-26 63,-21c19,4 38,13 42,21c4,7 19,13 32,13c36,0 32,28 -10,77c-19,23 -35,43 -35,46c0,2 26,-2 58,-9c71,-17 94,-11 86,21c-7,28 33,75 65,75c28,0 36,19 15,35c-18,13 -17,14 14,15c25,0 32,4 32,19c0,11 5,21 11,23c21,7 -9,48 -35,48c-17,0 -23,5 -22,18c1,13 -6,17 -27,15c-25,-2 -28,1 -23,21l5,22l-71,-23c-39,-13 -72,-22 -74,-20c-2,1 10,22 27,46c33,50 32,60 -5,35c-33,-21 -43,-12 -28,21c22,48 12,47 -44,-4c-53,-49 -58,-51 -113,-51c-119,0 -194,45 -221,133c-18,57 -13,78 8,33c9,-20 21,-26 69,-32c80,-12 77,-12 83,20l5,29l31,-27c40,-33 54,-33 54,0c0,27 0,27 62,21c52,-5 86,1 106,18c2,2 -4,17 -12,34c-16,30 -16,31 14,46c32,17 41,45 14,45c-10,0 9,25 50,65c36,35 66,69 66,74c0,5 -15,15 -34,21c-19,6 -40,18 -47,26c-8,10 -21,13 -41,8c-28,-5 -29,-4 -19,14c25,47 -1,56 -52,20c-19,-14 -50,-23 -86,-26c-55,-5 -56,-4 -38,15c16,18 25,93 11,93c-3,0 -25,-14 -49,-31c-39,-28 -50,-31 -95,-27c-67,7 -165,58 -240,125c-61,56 -80,87 -35,57c24,-16 25,-16 25,7c1,23 1,23 15,5c8,-11 22,-21 31,-22c9,-1 24,-10 33,-18c28,-26 41,-19 41,20l0,36l32,-31c37,-36 59,-37 69,-1l6,25l4,-24c2,-15 17,-33 38,-45c30,-17 34,-18 42,-3c5,9 16,23 24,31c8,8 15,31 15,51c0,31 3,36 18,30c53,-22 64,-15 42,25c-8,14 -6,21 6,28c15,8 15,12 0,40c-21,42 -5,49 28,12c41,-46 76,-37 73,20c-2,27 2,35 18,38c11,2 35,18 53,35c32,31 32,32 10,40c-12,4 -42,5 -66,1c-42,-6 -45,-5 -37,12c4,11 10,28 13,38c5,19 4,19 -25,-2c-16,-11 -36,-28 -43,-37c-7,-9 -22,-21 -33,-27c-18,-9 -19,-8 -13,16c5,19 3,26 -9,26c-19,0 -19,4 1,41c27,53 7,44 -60,-26c-61,-63 -67,-67 -98,-61c-79,15 -203,99 -233,157c-20,37 -19,39 9,39c16,0 32,-11 46,-30c29,-40 50,-39 50,3c1,29 2,30 12,12c19,-36 51,-65 70,-65c15,0 18,8 18,54c0,30 5,58 11,61c5,4 27,-11 48,-34c26,-28 46,-41 65,-41c25,0 26,2 15,23c-7,12 -23,36 -36,53c-27,36 -28,44 -9,44c8,0 18,-9 21,-20c3,-11 12,-20 19,-20c8,0 19,-7 26,-15c7,-8 24,-15 37,-15c25,0 25,0 8,27c-17,25 -17,27 1,40c11,8 29,16 42,20c27,7 28,19 2,35c-27,17 -25,26 5,20c38,-7 75,6 84,31c12,32 -4,46 -60,53c-39,5 -49,10 -49,25c0,28 -38,24 -93,-11c-26,-16 -50,-30 -52,-30c-3,0 -5,11 -5,24c0,13 -7,27 -16,30c-8,3 -14,14 -13,23c3,32 -1,34 -31,18c-30,-15 -30,-15 -30,13c0,43 -9,44 -42,7c-16,-19 -45,-44 -65,-56c-31,-19 -39,-20 -73,-10c-49,15 -55,24 -34,56c25,38 12,55 -39,55c-62,0 -90,25 -111,98c-14,52 -23,152 -11,141c2,-3 6,-28 9,-57c6,-57 39,-142 55,-142c15,0 31,34 31,66c0,33 10,25 25,-18c12,-39 60,-77 76,-61c7,7 8,22 1,47c-8,29 -8,36 4,36c8,0 14,5 14,10c0,20 18,10 24,-13c14,-57 96,-137 96,-94c0,6 5,30 11,52l11,40l22,-27l21,-26l54,26c80,40 83,51 31,109c-28,30 -59,53 -84,60c-56,18 -71,35 -56,62c24,46 -34,69 -81,33c-13,-10 -32,-21 -41,-25c-28,-10 -22,18 7,33c21,11 25,19 20,41c-5,22 -2,28 19,33c26,6 64,52 53,63c-4,3 -30,11 -59,18c-57,12 -65,24 -48,70l11,28l24,-23c23,-22 45,-20 45,3c0,14 57,67 71,67c5,0 9,9 9,19c0,22 -35,51 -62,51c-20,0 -24,30 -7,47c6,6 16,20 23,31c6,11 20,32 30,47c19,27 19,28 1,41c-10,8 -31,14 -47,14c-15,0 -28,2 -28,5c0,2 12,29 27,59c24,50 26,86 4,86c-5,0 -25,-22 -45,-50c-20,-27 -40,-50 -44,-50c-5,0 -14,11 -20,25c-6,14 -16,25 -21,25c-11,0 -46,-90 -60,-152c-16,-69 -134,-221 -145,-187c-6,17 -18,226 -17,289c1,33 7,50 22,63c31,25 39,21 39,-17c0,-58 25,-57 60,4c7,11 11,12 23,1c12,-9 21,-10 36,-1c18,9 20,14 10,33c-27,50 -53,78 -87,92c-54,23 -29,39 40,26c62,-11 98,-6 98,16c0,16 -49,62 -67,63c-21,0 -15,16 22,60c44,52 47,74 8,59c-16,-5 -45,-24 -65,-40l-38,-30l0,31c0,16 -4,30 -8,30c-11,0 -47,-77 -57,-118c-4,-18 -18,-45 -31,-59l-24,-26l0,24c0,78 24,158 77,260c42,79 54,112 46,120c-20,20 -51,-1 -72,-47c-12,-25 -26,-42 -31,-39c-6,3 -10,44 -10,91c0,65 -5,94 -20,124c-11,22 -23,40 -25,40c-3,0 -5,-73 -5,-162zm-38,-552c22,-44 37,-156 21,-156c-6,0 -16,28 -23,62c-6,35 -18,74 -25,88c-7,14 -16,36 -20,50c-7,23 -6,24 9,11c10,-8 27,-33 38,-55zm-7527,-8c32,-52 43,-90 44,-142c1,-63 -9,-52 -30,32c-9,37 -24,84 -33,105c-20,46 -8,49 19,5zm4669,-35c31,-47 50,-130 38,-164c-8,-21 -11,-17 -22,36c-6,33 -20,80 -31,104c-31,71 -24,83 15,24zm2832,-205c30,-33 44,-62 44,-94l0,-28l-24,33c-14,18 -34,39 -44,47c-21,14 -45,68 -35,78c8,8 34,-8 59,-36zm-7513,-33c32,-31 64,-101 52,-114c-3,-2 -6,-2 -8,0c-1,2 -24,27 -50,56c-42,47 -61,93 -39,93c5,0 25,-16 45,-35zm4657,-21c35,-30 60,-73 60,-105c0,-18 -8,-14 -50,30c-27,28 -50,56 -50,61c0,4 -3,15 -6,24c-9,24 11,19 46,-10zm3170,-77c0,-21 -66,-93 -116,-127c-25,-16 -47,-30 -50,-30c-10,0 -3,60 9,67c6,4 28,8 47,8c29,0 36,4 38,23c2,12 12,27 23,32c10,6 19,17 19,25c0,8 7,15 15,15c8,0 15,-6 15,-13zm-7505,-28c4,-6 -24,-40 -61,-76c-104,-99 -100,-97 -108,-78c-3,9 -3,27 0,41c5,20 12,24 45,24c32,0 41,5 51,25c6,14 15,25 20,25c5,0 13,11 18,25c10,26 24,32 35,14zm4663,-37c5,-16 -83,-107 -118,-122c-17,-7 -30,-16 -30,-21c0,-5 -5,-9 -11,-9c-6,0 -9,14 -7,33c3,30 6,32 48,37c37,4 46,9 48,28c2,12 8,22 13,22c5,0 15,11 21,25c11,26 28,29 36,7zm-7365,-102c17,-35 27,-69 27,-98c0,-56 -10,-48 -31,26c-9,31 -24,74 -33,96c-27,60 4,41 37,-24zm8589,-39c19,-36 28,-69 28,-99c0,-56 -10,-48 -31,26c-9,31 -24,74 -33,96c-26,59 3,40 36,-23zm1538,-79c24,4 30,1 28,-11c-6,-30 -51,-24 -83,10l-30,32l27,-18c17,-10 40,-16 58,-13zm-5453,-37c27,-42 42,-101 33,-135c-6,-23 -8,-21 -19,20c-10,37 -35,110 -49,142c-2,5 0,8 5,8c4,0 18,-16 30,-35zm-2102,15c3,-5 24,-10 46,-10c48,0 50,-23 3,-28c-21,-2 -36,4 -54,23c-13,14 -18,25 -12,25c6,0 14,-4 17,-10zm7645,-1c4,8 10,9 14,3c6,-11 -30,-62 -45,-62c-5,0 -9,16 -9,36c0,32 2,35 16,23c13,-10 17,-10 24,0zm-2930,-39c21,0 30,-4 28,-12c-7,-20 -58,-21 -79,-2c-25,22 -25,38 0,24c11,-5 34,-10 51,-10zm-4592,-2c9,-9 12,-9 12,0c0,7 5,12 10,12c16,0 11,-19 -11,-41c-17,-17 -23,-19 -30,-8c-11,18 -12,49 -1,49c4,0 13,-5 20,-12zm-2723,-39c31,-28 58,-83 49,-100c-5,-8 -81,67 -95,92c-25,47 -3,51 46,8zm7406,22c7,11 9,10 9,-5c0,-20 -27,-56 -42,-56c-4,0 -8,16 -8,36c0,32 2,35 16,23c13,-10 17,-10 25,2zm3009,-8c0,-5 -4,-15 -10,-23c-11,-18 -25,-7 -17,15c6,15 27,21 27,8zm-7510,-37c0,-8 -4,-17 -9,-21c-12,-7 -24,12 -16,25c9,15 25,12 25,-4zm5684,-17c30,-25 64,-95 52,-106c-5,-5 -83,73 -95,95c-27,50 -7,55 43,11zm-1014,-8c0,-5 -7,-14 -15,-21c-13,-10 -15,-9 -15,9c0,12 6,21 15,21c8,0 15,-4 15,-9zm-7256,-70c7,-11 -108,-121 -127,-121c-8,0 -18,-8 -21,-17c-9,-24 -29,-1 -24,28c2,20 9,24 46,27c34,3 45,8 52,26c5,13 16,26 24,29c9,4 16,13 16,22c0,16 25,21 34,6zm4364,-50c31,-29 52,-67 52,-96c0,-16 -81,59 -98,92c-15,28 -15,33 1,33c7,0 27,-13 45,-29zm4226,10c7,-11 -108,-121 -127,-121c-8,0 -18,-8 -21,-17c-10,-26 -30,1 -22,31c5,22 12,26 46,26c31,0 42,5 51,23c7,12 18,26 25,30c8,4 14,15 14,22c0,16 25,21 34,6zm-3949,-180c-26,-28 -61,-55 -77,-62c-15,-6 -28,-15 -28,-20c0,-5 -5,-9 -11,-9c-6,0 -9,14 -7,33c3,30 6,32 46,35c29,2 45,9 49,20c12,31 57,72 67,62c7,-7 -7,-27 -39,-59zm5154,-48c1,-40 -3,-73 -8,-73c-15,0 -23,68 -15,128c9,75 22,44 23,-55zm-7509,-15c0,-64 -3,-88 -10,-78c-18,27 -12,170 7,170c2,0 3,-42 3,-92zm4663,-67c-4,-29 -8,-39 -14,-30c-11,17 -12,120 -2,146c11,27 23,-61 16,-116zm-1467,79c17,-26 29,-59 32,-92c6,-63 -11,-58 -27,8c-7,26 -21,64 -32,85c-26,51 -7,50 27,-1zm-5568,10c30,0 42,-4 40,-12c-11,-31 -90,-15 -103,21c-5,13 -4,14 6,4c7,-7 33,-13 57,-13zm78,-31c4,-8 9,-7 15,2c4,7 11,10 15,6c9,-9 -25,-47 -43,-47c-7,0 -13,11 -13,25c0,26 14,33 26,14zm8511,-9c47,0 58,-16 17,-26c-29,-7 -70,11 -79,35c-5,13 -4,14 6,4c7,-7 32,-13 56,-13zm113,-28c0,-12 -34,-42 -47,-42c-7,0 -13,10 -13,23c0,20 5,24 30,24c17,0 30,-3 30,-5zm-8442,-24c-6,-18 -28,-21 -28,-4c0,9 7,16 16,16c9,0 14,-5 12,-12zm8590,-40c-6,-18 -28,-21 -28,-4c0,9 7,16 16,16c9,0 14,-5 12,-12zm-4163,-28c45,0 44,-23 -1,-28c-22,-2 -36,4 -54,24c-23,25 -24,26 -3,15c12,-6 38,-11 58,-11zm5086,-13c-13,-13 -26,-3 -16,12c3,6 11,8 17,5c6,-4 6,-10 -1,-17zm-8999,-14c28,-32 48,-81 48,-118c0,-43 -16,-38 -25,8c-4,17 -18,53 -31,80c-24,47 -20,62 8,30zm1490,-15c-7,-7 -12,-8 -12,-2c0,14 12,26 19,19c2,-3 -1,-11 -7,-17zm2528,12c0,-11 -29,-40 -40,-40c-8,0 -21,36 -15,42c8,7 55,5 55,-2zm761,-39c24,-24 39,-48 39,-63c0,-24 -3,-22 -50,21c-47,43 -65,81 -39,81c6,0 29,-17 50,-39zm1375,2c-10,-10 -19,5 -10,18c6,11 8,11 12,0c2,-7 1,-15 -2,-18zm2790,0c-10,-10 -19,5 -10,18c6,11 8,11 12,0c2,-7 1,-15 -2,-18zm161,-15c-3,-7 -5,-2 -5,12c0,14 2,19 5,13c2,-7 2,-19 0,-25zm-7657,2c0,-5 -4,-10 -10,-10c-5,0 -10,5 -10,10c0,6 5,10 10,10c6,0 10,-4 10,-10zm160,-4c0,-3 -4,-8 -10,-11c-5,-3 -10,-1 -10,4c0,6 5,11 10,11c6,0 10,-2 10,-4zm2560,-11c-7,-8 -16,-12 -21,-9c-13,8 -1,24 18,24c13,0 13,-3 3,-15zm4477,-15c31,-37 66,-39 89,-5c20,30 34,32 34,5c0,-24 22,-26 40,-5c16,19 30,19 30,0c0,-23 -54,-51 -121,-64c-74,-15 -94,-9 -108,31c-24,70 -7,88 36,38zm243,21c0,-6 -4,-13 -10,-16c-5,-3 -10,1 -10,9c0,9 5,16 10,16c6,0 10,-4 10,-9zm-2780,-10c0,-6 -4,-13 -10,-16c-5,-3 -10,1 -10,9c0,9 5,16 10,16c6,0 10,-4 10,-9zm-4729,-24c-13,-13 -26,-3 -16,12c3,6 11,8 17,5c6,-4 6,-10 -1,-17zm4886,1c-3,-8 -6,-5 -6,6c-1,11 2,17 5,13c3,-3 4,-12 1,-19zm-5119,-18c27,-37 51,-38 82,-5c28,30 40,32 40,5c0,-25 12,-25 35,0c13,15 22,17 29,10c27,-28 -86,-80 -174,-80c-34,0 -60,31 -60,72c0,37 20,36 48,-2zm4655,-20c34,-37 69,-39 91,-5c20,30 36,32 36,5c0,-23 28,-27 36,-5c7,16 34,21 34,5c0,-20 -44,-49 -89,-59c-94,-21 -106,-22 -124,-8c-20,14 -36,97 -20,97c5,0 22,-13 36,-30zm247,22c0,-13 -12,-22 -22,-16c-10,6 -1,24 13,24c5,0 9,-4 9,-8zm-960,-30c0,-20 -141,-132 -165,-132c-4,0 -5,12 -3,28c3,24 7,27 46,30c29,2 45,9 49,20c13,36 73,80 73,54zm-5900,-113c0,-51 -4,-78 -10,-74c-5,3 -10,40 -10,81c0,43 4,74 10,74c6,0 10,-34 10,-81zm822,15c18,-21 39,-69 32,-76c-8,-9 -104,87 -104,105c0,16 2,16 28,3c15,-8 35,-22 44,-32zm7768,-50c0,-43 -4,-74 -10,-74c-6,0 -10,34 -10,81c0,51 4,78 10,74c6,-3 10,-40 10,-81zm470,8c5,-4 -21,-22 -32,-22c-5,0 -8,11 -8,24c0,13 -7,26 -15,30c-8,3 -15,11 -15,18c0,6 15,-1 32,-18c18,-16 35,-30 38,-32zm-5564,-64c16,-30 19,-102 5,-93c-5,3 -12,20 -16,38c-4,17 -16,47 -26,65c-10,18 -19,38 -19,44c0,16 40,-22 56,-54zm4365,32c20,0 26,-15 9,-25c-22,-14 -10,-35 20,-35c26,0 30,-4 30,-26c0,-20 4,-25 23,-22c18,2 23,-2 25,-24c4,-32 5,-32 31,-16c27,17 51,-5 51,-48c0,-41 -11,-49 -33,-23c-18,20 -71,26 -82,9c-3,-5 -15,-10 -26,-10c-24,0 -24,-12 1,-35c21,-19 29,-89 11,-99c-5,-4 -29,12 -52,34c-52,48 -74,52 -64,13c11,-44 11,-48 0,-46c-6,1 -40,5 -75,9l-64,7l15,-24c9,-13 34,-33 56,-44l40,-20l-36,-24c-23,-16 -56,-26 -91,-29c-54,-5 -55,-4 -37,15c17,19 25,93 10,93c-5,0 -26,-14 -47,-30c-56,-42 -111,-41 -202,5c-74,37 -187,123 -198,151c-6,15 -5,15 18,0c33,-21 36,-20 36,6l0,22l16,-22c8,-12 21,-22 28,-22c7,0 25,-9 38,-20l26,-20l6,39l6,39l36,-34c19,-19 39,-34 43,-34c4,0 12,12 18,28c10,25 11,25 12,4c1,-15 12,-28 37,-39c33,-16 36,-16 45,-1c5,9 16,24 24,32c8,8 15,29 15,46c0,26 3,31 18,27c42,-12 47,-11 46,3c-1,8 -5,23 -9,33c-5,12 -2,17 9,17c20,0 20,4 0,41c-21,41 -10,48 24,16c45,-43 101,-33 73,12c-12,19 -3,41 18,41c10,0 31,13 47,29c21,21 30,26 32,15c2,-8 12,-14 23,-14zm-3179,-125c-6,-55 -22,-30 -22,35c0,80 13,110 20,47c3,-26 4,-63 2,-82zm-3587,74c-22,-23 -59,-50 -82,-60c-23,-11 -43,-25 -46,-32c-3,-8 -7,-5 -12,7c-13,30 8,51 54,54c22,2 41,8 41,14c0,18 43,56 65,57c15,1 11,-7 -20,-40zm4720,-9c25,0 35,-4 33,-12c-8,-24 -54,-20 -84,7c-23,20 -24,24 -7,16c12,-6 38,-11 58,-11zm-5915,-29c0,-6 -4,-13 -10,-16c-5,-3 -10,1 -10,9c0,9 5,16 10,16c6,0 10,-4 10,-9zm567,-6c10,-28 60,-47 107,-40c32,5 45,3 55,-9c17,-20 47,-21 55,-1c3,8 15,15 26,15c25,0 25,-5 0,-30c-11,-11 -20,-27 -20,-35c0,-21 39,-19 63,3c19,17 19,16 13,-15c-8,-35 5,-49 32,-37c9,4 21,8 25,8c5,1 15,12 22,26l13,25l11,-28c17,-43 13,-64 -11,-71c-42,-11 -176,-7 -190,7c-23,20 -96,57 -114,57c-10,0 -28,-9 -40,-21l-22,-21l-47,33c-26,19 -58,40 -71,47c-27,15 -32,49 -9,58c9,4 28,-8 48,-30c23,-24 43,-36 61,-36c34,0 33,6 -9,59c-19,24 -35,45 -35,47c0,12 32,1 37,-11zm5456,-2c-5,-13 -34,-33 -47,-33c-3,0 -6,11 -6,23c0,19 5,24 29,24c20,0 28,-4 24,-14zm3301,-9c9,-3 16,-17 16,-30c0,-31 14,-31 28,2l12,25l25,-27c14,-15 25,-32 25,-39c0,-7 11,-29 25,-49c14,-20 25,-43 25,-51c0,-8 10,-20 22,-26c12,-7 30,-21 39,-33c15,-19 19,-19 36,-6c11,8 7,3 -8,-11c-29,-29 -122,-68 -179,-75l-35,-5l30,14c17,8 41,26 54,41l24,26l-66,0c-66,0 -78,5 -56,27c6,6 9,17 7,23c-2,8 -15,3 -35,-14c-37,-31 -41,-31 -73,-6l-25,20l33,28c17,16 32,32 32,35c0,14 -38,6 -83,-17c-44,-22 -47,-22 -47,-5c0,11 -4,19 -9,19c-15,0 -49,-48 -56,-79c-5,-25 -40,-49 -53,-36c-11,11 13,89 40,126c27,37 31,39 46,26c22,-19 59,-30 66,-19c3,5 -7,25 -21,45c-14,21 -23,40 -19,44c4,4 10,3 14,-2c11,-15 68,-45 86,-45c20,0 21,14 1,30c-20,17 -19,25 8,38c26,12 49,14 71,6zm-734,-24c0,-5 -4,-10 -10,-10c-5,0 -10,5 -10,10c0,6 5,10 10,10c6,0 10,-4 10,-10zm-8645,-10c-3,-5 -10,-10 -16,-10c-5,0 -9,5 -9,10c0,6 7,10 16,10c8,0 12,-4 9,-10zm152,-22c-3,-7 -5,-2 -5,12c0,14 2,19 5,13c2,-7 2,-19 0,-25zm1793,16c0,-8 -5,-12 -10,-9c-6,4 -8,11 -5,16c9,14 15,11 15,-7zm4288,4c-6,-18 -28,-21 -28,-4c0,9 7,16 16,16c9,0 14,-5 12,-12zm-2124,-13c-5,-11 1,-15 25,-15c26,0 31,-4 31,-25c0,-22 3,-25 25,-19c22,5 25,3 25,-21c0,-24 3,-26 26,-21c45,12 79,-35 54,-74c-8,-12 -11,-12 -27,2c-23,21 -39,23 -85,14c-44,-9 -46,-16 -17,-55c16,-22 19,-36 14,-60c-4,-17 -9,-31 -13,-31c-3,0 -23,17 -44,38c-29,27 -52,40 -90,47c-56,11 -65,21 -44,50c13,17 16,18 37,4c22,-15 25,-14 58,18c19,18 40,33 47,33c7,0 15,4 19,9c8,15 -24,41 -50,41c-35,0 -39,16 -14,50c25,33 31,37 23,15zm-3752,-25c32,-37 48,-38 48,-3l0,27l34,-37c18,-20 42,-37 52,-38c27,-1 -19,-14 -76,-22c-38,-5 -49,-2 -71,17c-28,24 -49,57 -49,75c0,22 36,10 62,-19zm-668,-5c26,-39 62,-43 97,-9c28,27 29,27 29,6c0,-25 22,-29 40,-7c16,19 30,19 30,-1c0,-22 -77,-53 -149,-60l-61,-7l-16,38c-24,59 -2,89 30,40zm246,16c0,-6 -4,-13 -10,-16c-5,-3 -10,1 -10,9c0,9 5,16 10,16c6,0 10,-4 10,-9zm8660,0c0,-12 -20,-25 -27,-18c-7,7 6,27 18,27c5,0 9,-4 9,-9zm147,-28c-3,-10 -5,-4 -5,12c0,17 2,24 5,18c2,-7 2,-21 0,-30zm-5136,6c29,-21 65,-76 55,-86c-8,-8 -106,78 -106,94c0,19 17,16 51,-8zm2203,-50c-17,-34 -78,-88 -162,-144l-69,-46l-64,37c-35,21 -65,39 -67,40c-2,1 1,12 8,23c9,18 8,21 -10,21c-34,0 -18,23 28,40c22,9 52,26 66,39c14,14 26,20 26,14c0,-5 -20,-29 -45,-52c-26,-24 -44,-48 -42,-55c6,-18 37,-19 58,0c18,16 19,16 19,-9c0,-36 15,-34 37,4c12,20 24,29 35,25c10,-2 21,0 24,5c3,5 18,9 33,9c38,0 93,38 111,77c12,24 16,27 21,14c4,-9 1,-28 -7,-42zm3134,31c15,-16 32,-30 39,-30c17,0 43,-40 43,-68c0,-20 -3,-21 -20,-12c-11,6 -27,26 -35,45c-15,37 -24,42 -42,24c-8,-8 -15,-4 -27,12c-39,56 -3,81 42,29zm-651,-20c36,-32 53,-31 83,4c16,20 41,21 34,2c-9,-24 14,-27 35,-4c23,24 41,17 25,-10c-17,-28 -63,-45 -134,-50c-73,-5 -85,2 -96,56c-8,41 7,42 53,2zm233,20c0,-5 -4,-10 -10,-10c-5,0 -10,5 -10,10c0,6 5,10 10,10c6,0 10,-4 10,-10zm-3794,-37c-10,-10 -19,5 -10,18c6,11 8,11 12,0c2,-7 1,-15 -2,-18zm555,10c13,-16 12,-17 -3,-4c-10,7 -18,15 -18,17c0,8 8,3 21,-13zm-4061,-9c13,-5 13,-6 0,-14c-24,-15 -56,-11 -81,9l-24,20l45,-6c25,-2 52,-7 60,-9zm810,-38c0,-11 -39,-41 -45,-34c-1,2 0,20 3,41c4,37 5,37 23,21c11,-9 19,-22 19,-28zm-1314,8c17,-14 17,-15 1,-10c-10,3 -23,6 -28,6c-5,0 -9,5 -9,10c0,14 13,12 36,-6zm584,5c0,-12 -42,-39 -52,-33c-4,3 -8,13 -8,23c0,13 8,18 30,18c17,0 30,-4 30,-8zm3951,-27c31,-32 38,-45 36,-75c-1,-20 -4,-37 -7,-37c-3,0 -25,19 -48,43c-39,40 -54,82 -35,100c10,11 13,9 54,-31zm-571,18c0,-5 -4,-10 -10,-10c-5,0 -10,5 -10,10c0,6 5,10 10,10c6,0 10,-4 10,-10zm711,-17c15,-13 14,-16 -9,-43c-14,-16 -29,-27 -34,-24c-4,3 -8,25 -8,49c0,38 3,43 18,38c9,-3 24,-12 33,-20zm-1466,8c7,-12 -68,-73 -124,-100c-54,-25 -51,-25 -51,-2c0,27 25,44 57,37c24,-5 33,0 62,34c36,41 46,47 56,31zm902,-13c-3,-8 -6,-5 -6,6c-1,11 2,17 5,13c3,-3 4,-12 1,-19zm195,-3c32,-38 41,-46 52,-42c6,2 11,14 10,26c0,11 0,21 2,21c1,0 18,-16 37,-35c19,-19 41,-35 49,-35c7,0 19,-9 26,-20c10,-17 9,-23 -8,-40c-26,-26 -32,-26 -100,11c-63,33 -104,71 -115,107c-5,18 -2,22 14,22c11,0 26,-7 33,-15zm-647,-25c35,-37 54,-38 85,-5c28,30 40,32 40,5c0,-24 8,-25 32,-3c12,11 22,13 28,7c23,-23 -49,-57 -146,-70c-46,-6 -53,-4 -68,17c-17,24 -22,79 -8,79c5,0 21,-13 37,-30zm245,22c0,-13 -12,-22 -22,-16c-10,6 -1,24 13,24c5,0 9,-4 9,-8zm-3170,-11c0,-12 -20,-25 -27,-18c-7,7 6,27 18,27c5,0 9,-4 9,-9zm-420,-92c-13,-31 -100,-104 -185,-157l-49,-31l-38,21c-46,26 -50,56 -10,79c28,16 29,16 24,-7c-6,-33 8,-30 40,8c21,25 30,30 36,20c7,-10 11,-10 22,3c7,8 25,15 40,15c40,0 93,40 105,78c7,26 11,29 18,16c5,-9 4,-27 -3,-45zm874,-14c17,-25 17,-27 0,-23c-10,2 -27,18 -38,37l-19,33l20,-10c11,-6 28,-23 37,-37zm3535,11c-3,-3 -15,-3 -27,1c-18,4 -20,8 -11,20c11,12 14,12 28,-1c8,-9 13,-18 10,-20zm491,-53c0,-35 -4,-63 -9,-63c-15,0 -23,55 -15,106c9,63 24,37 24,-43zm-3874,58c-6,-9 -46,-22 -46,-15c0,3 10,9 23,14c29,11 29,11 23,1zm-1316,-31c0,-5 -4,-10 -10,-10c-5,0 -10,5 -10,10c0,6 5,10 10,10c6,0 10,-4 10,-10zm3320,-5c0,-16 -35,-21 -45,-6c-4,8 9,15 38,20c4,0 7,-6 7,-14zm-225,-60c47,-3 51,-5 35,-15c-24,-16 -56,-11 -81,11c-21,18 -21,20 -4,13c11,-4 34,-8 50,-9zm150,-5c3,-5 1,-10 -4,-10c-6,0 -11,5 -11,10c0,6 2,10 4,10c3,0 8,-4 11,-10zm-35,-21c0,-10 -34,-29 -49,-29c-6,0 -11,8 -11,18c0,14 8,19 30,19c17,0 30,-4 30,-8zm4180,-29c5,0 11,-8 14,-18c11,-34 72,-120 104,-147c32,-26 33,-27 52,-10c11,10 20,13 20,7c0,-17 -42,-42 -116,-68c-86,-32 -138,-31 -180,1c-44,33 -54,32 -54,-10c0,-30 -3,-35 -24,-35c-13,0 -32,3 -41,6c-14,6 -11,10 14,20c31,13 32,14 17,43c-15,28 -15,30 17,55c28,23 30,27 15,36c-14,9 -9,17 38,62c30,28 57,48 60,45c4,-4 16,6 28,21c17,22 21,23 24,9c2,-9 7,-17 12,-17zm-6980,-66c0,-36 -4,-64 -10,-64c-6,0 -10,30 -10,71c0,44 4,68 10,64c6,-3 10,-35 10,-71zm-786,22c16,-4 30,-15 33,-27c4,-14 12,-19 24,-16c20,5 26,-7 9,-18c-22,-14 -10,-35 20,-35c20,0 30,-5 30,-15c0,-8 -5,-15 -10,-15c-22,0 -109,50 -163,95c-57,46 -79,80 -32,49c24,-16 25,-16 25,7l0,24l18,-21c9,-12 30,-25 46,-28zm76,23c0,-5 -4,-9 -10,-9c-5,0 -10,7 -10,16c0,8 5,12 10,9c6,-3 10,-10 10,-16zm87,-11c-3,-8 -6,-5 -6,6c-1,11 2,17 5,13c3,-3 4,-12 1,-19zm3253,-26c0,-64 61,-134 75,-87c15,47 17,50 22,35c10,-29 47,-60 71,-60c21,0 23,3 18,25c-8,30 23,73 32,45c3,-8 22,-32 42,-54c38,-41 70,-45 70,-8c0,31 21,44 41,26c15,-14 22,-14 55,-2c30,10 38,11 42,0c2,-7 15,-26 28,-41c13,-16 24,-34 24,-40c0,-6 11,-17 25,-23c14,-6 25,-14 25,-17c0,-3 -19,-14 -43,-23c-78,-32 -77,-32 -77,-10c0,11 -7,22 -15,26c-9,3 -12,12 -8,22c5,13 2,16 -8,12c-55,-21 -59,-20 -59,6c0,32 -10,33 -39,2c-49,-52 -132,-68 -181,-36c-13,9 -13,12 3,21c9,5 17,19 17,29c0,17 -7,20 -53,20c-66,0 -91,17 -111,77c-18,52 -21,107 -6,98c6,-3 10,-23 10,-43zm2041,15c-13,-13 -26,-3 -16,12c3,6 11,8 17,5c6,-4 6,-10 -1,-17zm568,-3c3,-16 1,-17 -13,-5c-19,16 -21,34 -3,29c6,-3 14,-13 16,-24zm2766,-54c21,0 19,-17 -4,-30c-35,-18 -41,-12 -41,43l1,52l14,-32c8,-18 21,-33 30,-33zm-5474,2c-15,-35 -67,-79 -163,-137l-70,-42l-66,33c-37,19 -72,34 -79,34c-7,0 -17,9 -23,19c-11,22 -13,38 -4,28c4,-3 18,3 32,13c13,11 32,20 40,20c8,0 30,11 49,26c50,38 40,12 -12,-30c-25,-21 -45,-41 -45,-46c0,-17 34,-20 56,-5c30,20 33,19 27,-5c-7,-28 12,-25 36,6c14,17 26,24 37,20c9,-4 22,-2 28,3c6,4 28,11 48,15c46,8 98,50 98,79c0,16 3,18 11,10c9,-9 9,-19 0,-41zm2085,11c-10,-10 -19,5 -10,18c6,11 8,11 12,0c2,-7 1,-15 -2,-18zm561,12c7,-19 55,-45 83,-45c17,0 19,3 10,19c-14,26 -13,31 5,25c8,-4 15,-18 15,-33c0,-15 5,-32 11,-38c7,-7 3,-15 -13,-25c-13,-9 -38,-30 -57,-47c-21,-19 -45,-31 -62,-31c-66,0 -219,82 -244,130c-13,26 -11,40 5,40c4,0 24,-13 45,-30c39,-31 55,-31 55,0c0,14 7,11 35,-17c41,-41 59,-39 63,8c1,19 5,40 7,47c6,17 34,15 42,-3zm2661,-22c18,-14 32,-33 32,-45l0,-21l-22,20c-13,11 -33,26 -45,32c-13,6 -27,20 -33,30c-8,16 -7,18 13,14c12,-3 37,-17 55,-30zm-3061,5c-3,-8 -6,-5 -6,6c-1,11 2,17 5,13c3,-3 4,-12 1,-19zm-547,-30c0,-13 -23,-5 -28,10c-2,7 2,10 12,6c9,-3 16,-11 16,-16zm136,-28c20,0 6,-27 -17,-33c-30,-8 -56,3 -67,27c-15,34 15,50 47,25c13,-11 30,-19 37,-19zm-486,-17c0,5 16,-1 35,-13c32,-20 35,-20 35,-4c0,16 1,16 20,-1c19,-17 19,-19 2,-31c-27,-21 -60,-16 -117,16c-53,30 -105,77 -58,52c30,-16 43,-15 43,4c0,12 5,11 20,-7c10,-13 19,-20 20,-16zm1492,12c-2,-14 1,-31 7,-39c9,-11 6,-18 -18,-35c-36,-26 -44,-26 -36,-1c5,14 2,20 -10,20c-14,0 -14,3 -2,26c7,14 24,31 38,39c13,7 25,13 25,14c1,1 -1,-10 -4,-24zm2758,-15c-20,-13 -33,-13 -25,0c3,6 14,10 23,10c15,0 15,-2 2,-10zm1480,-26c0,-8 -4,-12 -10,-9c-5,3 -10,13 -10,21c0,8 5,12 10,9c6,-3 10,-13 10,-21zm-10233,10c-3,-3 -12,-4 -19,-1c-8,3 -5,6 6,6c11,1 17,-2 13,-5zm2733,-20c0,-8 -4,-12 -10,-9c-5,3 -10,13 -10,21c0,8 5,12 10,9c6,-3 10,-13 10,-21zm6115,-10c-32,-13 -45,-3 -25,21c10,12 17,12 34,3c21,-11 20,-12 -9,-24zm-8330,16c-3,-5 -11,-10 -16,-10c-6,0 -7,5 -4,10c3,6 11,10 16,10c6,0 7,-4 4,-10zm5552,-15c-4,-8 -11,-15 -17,-15c-7,0 -7,6 0,21c13,23 26,19 17,-6zm1323,-16c0,-5 -4,-9 -10,-9c-5,0 -10,7 -10,16c0,8 5,12 10,9c6,-3 10,-10 10,-16zm-6373,-4c7,-20 55,-45 85,-45c13,0 32,-7 42,-15c23,-17 9,-19 -30,-5c-40,16 -57,-5 -25,-31c32,-26 5,-26 -59,2c-42,18 -50,26 -56,54c-3,19 -3,38 1,44c9,16 35,13 42,-4zm100,9c-3,-3 -12,-4 -19,-1c-8,3 -5,6 6,6c11,1 17,-2 13,-5zm1231,-18c8,-18 21,-25 59,-30c26,-4 58,-10 70,-13c18,-4 22,0 25,26c3,31 3,31 27,15c21,-15 21,-18 7,-26c-24,-13 -21,-48 4,-48c17,0 19,-3 10,-19c-15,-28 -13,-31 20,-31c24,0 30,-4 30,-21c0,-20 -4,-21 -64,-17c-44,4 -81,15 -117,34c-50,27 -56,33 -75,92c-21,60 -18,86 4,38zm439,-23c-1,-1 -25,3 -52,9l-50,11l35,12c32,12 37,11 52,-9c9,-11 16,-22 15,-23zm-2322,27c-3,-5 -10,-10 -16,-10c-5,0 -9,5 -9,10c0,6 7,10 16,10c8,0 12,-4 9,-10zm152,-22c-3,-7 -5,-2 -5,12c0,14 2,19 5,13c2,-7 2,-19 0,-25zm2031,10c-3,-23 -48,-41 -48,-20c0,6 -3,17 -6,26c-5,13 1,16 26,16c27,0 31,-3 28,-22zm622,-49c0,-33 -4,-59 -10,-59c-6,0 -10,29 -10,66c0,41 4,63 10,59c6,-3 10,-33 10,-66zm-2448,29c8,-11 25,-22 39,-24c13,-1 26,-3 29,-4c11,-3 -36,-19 -59,-19c-27,-1 -71,34 -71,56c0,21 46,15 62,-9zm55,0c-3,-8 -6,-5 -6,6c-1,11 2,17 5,13c3,-3 4,-12 1,-19zm3013,19c0,-2 -10,-12 -22,-23l-23,-19l19,23c18,21 26,27 26,19zm3115,-17c7,-22 26,-28 100,-32c49,-3 50,-2 50,25c-1,15 1,27 3,27c3,0 20,-13 39,-30c18,-16 39,-30 44,-30c7,0 9,12 7,30c-4,29 -3,30 32,30c45,0 52,-6 37,-31c-10,-17 -8,-23 18,-44l30,-24l-36,-36c-43,-43 -93,-57 -161,-45c-90,17 -168,74 -168,122c0,11 -5,28 -10,39c-7,12 -7,19 -1,19c5,0 13,-9 16,-20zm2005,-135c0,-8 -7,-15 -16,-15c-14,0 -14,3 -4,15c7,8 14,15 16,15c2,0 4,-7 4,-15zm-7503,-17c-3,-8 -6,-5 -6,6c-1,11 2,17 5,13c3,-3 4,-12 1,-19zm4661,-16c2,-8 -9,-12 -32,-12c-31,0 -36,-3 -36,-24c0,-13 7,-40 15,-59c19,-46 19,-47 -3,-47c-10,0 -29,-11 -42,-25c-13,-14 -28,-25 -33,-25c-6,0 -18,-6 -26,-14c-9,-8 -32,-17 -51,-21c-29,-6 -33,-5 -22,6c11,11 18,79 8,79c-2,0 -25,-12 -50,-26c-66,-37 -129,-31 -238,24c-79,39 -176,111 -151,112c6,0 15,-4 18,-10c10,-16 25,-12 25,7c0,15 1,15 18,0c10,-10 25,-17 33,-17c8,0 23,-7 33,-15c29,-22 36,-19 36,16l0,30l33,-25c42,-32 55,-32 67,-3c7,17 9,18 9,4c1,-10 16,-25 36,-34c35,-17 36,-17 60,10c14,14 25,39 25,54c1,23 2,25 11,11c5,-10 16,-15 24,-12c11,5 15,-1 15,-20c0,-18 5,-26 18,-26c10,0 24,-6 31,-12c10,-11 18,-6 39,22c15,19 39,48 55,64c25,26 29,27 49,14c12,-8 24,-20 26,-26zm2952,8c-38,-32 -46,-35 -55,-20c-3,5 11,18 32,29c54,29 63,26 23,-9zm-5950,6c0,-3 -4,-8 -10,-11c-5,-3 -10,-1 -10,4c0,6 5,11 10,11c6,0 10,-2 10,-4zm4260,-20c0,-16 -7,-26 -22,-29c-31,-8 -33,-3 -11,27c23,32 33,33 33,2zm-6000,2c0,-22 -88,-93 -168,-136c-79,-42 -82,-43 -112,-27c-40,21 -38,29 6,20c32,-6 35,-4 30,13c-7,22 24,54 57,58c102,12 118,17 145,50c29,34 42,42 42,22zm4869,-1c-2,-2 -19,-15 -37,-30c-38,-30 -74,-38 -51,-11c14,17 82,54 88,48c2,-2 2,-5 0,-7zm-3184,-17c-3,-5 -11,-10 -16,-10c-6,0 -7,5 -4,10c3,6 11,10 16,10c6,0 7,-4 4,-10zm152,-22c-3,-7 -5,-2 -5,12c0,14 2,19 5,13c2,-7 2,-19 0,-25zm199,-13c15,-14 33,-25 40,-25c8,0 14,-9 14,-20c0,-30 36,-45 64,-27c21,14 22,14 18,-13l-4,-28l-41,14c-69,24 -147,83 -147,111c0,21 27,15 56,-12zm-416,5c0,-5 -4,-10 -10,-10c-5,0 -10,5 -10,10c0,6 5,10 10,10c6,0 10,-4 10,-10zm-52,-21c-2,-6 -8,-10 -13,-10c-5,0 -11,4 -13,10c-2,6 4,11 13,11c9,0 15,-5 13,-11zm5972,-29c0,-5 -4,-10 -10,-10c-5,0 -10,5 -10,10c0,6 5,10 10,10c6,0 10,-4 10,-10zm-9035,-30c5,-15 15,-20 44,-20c34,0 43,-6 75,-47c20,-25 36,-49 36,-53c0,-4 10,-12 23,-19c43,-22 -55,-1 -111,24c-40,18 -56,32 -66,57c-23,56 -28,78 -17,78c5,0 13,-9 16,-20zm8934,-19c22,-6 20,-8 -21,-29c-25,-12 -57,-22 -72,-22c-25,0 -26,1 -11,16c12,12 13,19 4,30c-9,12 -4,14 32,13c24,-1 55,-4 68,-8zm-8099,-37c0,9 5,16 10,16c6,0 10,-11 10,-24c0,-18 6,-26 22,-28c18,-3 19,-5 6,-15c-12,-10 -22,-7 -56,18c-45,33 -59,61 -17,33c23,-15 25,-15 25,0zm2903,9c-7,-2 -19,-2 -25,0c-7,3 -2,5 12,5c14,0 19,-2 13,-5zm4948,-64c-10,-23 -10,-23 -10,7c-1,17 2,34 7,38c11,12 14,-18 3,-45zm-7756,-29c3,-5 2,-10 -4,-10c-5,0 -13,5 -16,10c-3,6 -2,10 4,10c5,0 13,-4 16,-10zm-1651,-25c-33,-26 -75,-46 -87,-42c-7,2 13,18 43,35c54,31 81,35 44,7zm8461,-5c19,-21 16,-23 -28,-20c-35,2 -42,-18 -23,-65c20,-46 20,-55 2,-55c-8,0 -27,-10 -43,-22c-55,-44 -89,-57 -175,-64c-98,-8 -176,7 -204,37c-16,18 -16,19 4,19c18,0 22,6 22,32l0,32l29,-28c22,-21 35,-26 48,-21c10,5 23,7 30,6c7,-1 21,7 33,19c11,11 27,20 35,20c24,0 17,24 -20,67c-19,23 -35,44 -35,47c0,10 54,-6 71,-21c9,-8 24,-11 34,-7c16,6 17,3 11,-21c-6,-24 -5,-27 14,-22c12,3 24,-1 30,-11c9,-15 17,-9 61,41c55,61 75,69 104,37zm145,-7c0,-10 -84,-63 -99,-63c-22,0 -1,20 47,45c55,28 52,27 52,18zm-4380,-73c0,-5 7,-10 16,-10c9,0 30,-8 46,-17c23,-14 32,-15 35,-5c8,22 23,13 23,-14c0,-20 4,-24 19,-19c12,4 21,0 25,-11c6,-15 10,-14 35,10c38,36 58,31 81,-22l19,-43l-27,-10c-47,-18 -184,27 -282,93c-57,38 -77,63 -31,38c17,-9 21,-8 21,5c0,8 5,15 10,15c6,0 10,-4 10,-10zm-828,-37c22,-21 30,-24 42,-14c8,7 20,10 26,6c6,-4 17,-2 25,5c11,9 16,7 24,-8c6,-11 26,-29 46,-41c60,-35 46,-44 -62,-39c-122,5 -218,44 -153,61c17,4 19,11 14,31c-8,33 3,33 38,-1zm1298,22c0,-9 -91,-57 -97,-51c-8,7 -7,9 37,35c33,19 60,27 60,16zm-1060,-79c0,-2 -8,-10 -17,-17c-16,-13 -17,-12 -4,4c13,16 21,21 21,13zm3400,-43c15,4 30,3 33,0c21,-20 -67,-90 -131,-104c-20,-4 -48,-11 -61,-15c-26,-8 -26,-10 -3,45c4,10 1,13 -10,8c-13,-5 -14,-1 -5,28c10,35 27,38 27,6c0,-34 14,-32 37,6l23,38l0,-32c0,-46 16,-49 31,-6c16,52 23,61 27,39c3,-14 10,-17 32,-13zm2870,22c0,-8 -64,-45 -78,-45c-25,0 -6,23 28,35c42,15 50,17 50,10zm-3326,-60c40,-3 62,-1 67,6c4,7 15,9 24,5c12,-4 15,-13 11,-30c-9,-37 11,-41 32,-7c19,32 32,31 32,0c0,-13 12,-20 42,-26l42,-8l-30,-20c-45,-31 -173,-28 -238,5c-28,14 -53,32 -57,40c-19,37 -39,84 -39,88c0,3 12,-6 28,-21c21,-20 41,-27 86,-32zm-4812,-149c15,-16 28,-32 28,-35c0,-4 14,-12 32,-19c17,-6 29,-14 26,-17c-8,-8 -90,23 -111,43c-16,14 -47,74 -47,90c0,6 33,-22 72,-62zm7953,-52c-44,-33 -144,-26 -175,11c-9,11 -2,13 41,9c28,-3 60,-9 70,-14c24,-14 26,-13 32,11c5,18 8,19 28,8c21,-11 22,-12 4,-25zm1350,-14c4,-6 -10,-10 -34,-10c-23,0 -41,5 -41,10c0,6 15,10 34,10c19,0 38,-4 41,-10zm-2485,-23c0,-17 -44,-59 -53,-50c-11,11 -8,22 13,43c23,23 40,26 40,7zm-3910,-74c0,-19 -72,-72 -106,-79c-27,-5 -114,10 -114,20c0,2 6,19 14,37c13,30 15,32 21,14c4,-11 9,-27 12,-35c4,-10 10,-5 21,18c19,38 32,41 32,7c0,-33 19,-32 31,3c8,23 15,27 49,27c24,0 40,-5 40,-12zm6660,-3c0,-5 -2,-10 -4,-10c-3,0 -8,5 -11,10c-3,6 -1,10 4,10c6,0 11,-4 11,-10zm-2992,-175c-11,-9 -128,-13 -128,-5c0,6 15,10 34,10c18,0 39,7 46,15c12,14 15,14 31,-1c11,-10 18,-18 17,-19zm-1379,-231c-9,-11 -15,-12 -23,-4c-8,8 -7,13 4,20c20,12 33,1 19,-16zm-76,-51c-7,-2 -19,-2 -25,0c-7,3 -2,5 12,5c14,0 19,-2 13,-5zm4467,-18c7,-8 8,-15 2,-15c-5,0 -15,7 -22,15c-7,8 -8,15 -2,15c5,0 15,-7 22,-15zm-2880,-131c-36,-8 -100,-9 -100,-2c0,5 26,7 58,7c31,-1 50,-3 42,-5zm-317,-501l32,-16l-50,-23l-50,-24l-17,23c-22,28 -18,43 10,39c12,-2 22,2 22,7c0,15 16,14 53,-6zm-8973,-253c0,-5 -7,-10 -16,-10c-8,0 -12,5 -9,10c3,6 10,10 16,10c5,0 9,-4 9,-10zm230,-175c12,-19 25,-35 29,-35c4,0 15,16 25,36l17,37l16,-23c12,-17 17,-19 24,-9c6,10 11,5 20,-18c12,-36 23,-42 33,-18c3,8 18,15 33,15l28,0l-30,-20c-20,-13 -47,-20 -80,-20c-28,0 -56,-5 -62,-11c-8,-8 -19,-6 -40,5c-17,8 -40,12 -51,9c-32,-8 -38,21 -12,57c12,16 23,30 25,30c2,0 13,-16 25,-35zm280,16c0,-5 -7,-11 -15,-15c-15,-5 -20,5 -8,17c9,10 23,9 23,-2zm-130,-710c0,-6 -4,-13 -10,-16c-5,-3 -10,1 -10,9c0,9 5,16 10,16c6,0 10,-4 10,-9zm7798,-379c3,-46 1,-47 -47,-31c-20,7 -31,18 -31,30c0,10 5,19 10,19c6,0 8,11 4,26c-6,25 -6,25 27,11c30,-12 34,-18 37,-55zm-8,-122c0,-5 -2,-10 -4,-10c-3,0 -8,5 -11,10c-3,6 -1,10 4,10c6,0 11,-4 11,-10z" fill="#081c15" id="svg_2"/>
  </g>
 </g>
</svg>